%TF.GenerationSoftware,KiCad,Pcbnew,7.0.7-2.fc38*%
%TF.CreationDate,2024-02-23T01:30:49-08:00*%
%TF.ProjectId,SparrowBreadboardAdapter,53706172-726f-4774-9272-656164626f61,rev?*%
%TF.SameCoordinates,Original*%
%TF.FileFunction,Drillmap*%
%TF.FilePolarity,Positive*%
%FSLAX45Y45*%
G04 Gerber Fmt 4.5, Leading zero omitted, Abs format (unit mm)*
G04 Created by KiCad (PCBNEW 7.0.7-2.fc38) date 2024-02-23 01:30:49*
%MOMM*%
%LPD*%
G01*
G04 APERTURE LIST*
%ADD10C,0.100000*%
%ADD11C,0.200000*%
G04 APERTURE END LIST*
D10*
X13154000Y-4827000D02*
G75*
G03*
X12954000Y-5027000I0J-200000D01*
G01*
X16510000Y-5026000D02*
G75*
G03*
X16310000Y-4826000I-200000J0D01*
G01*
X16310000Y-8636000D02*
G75*
G03*
X16510000Y-8436000I0J200000D01*
G01*
X12954000Y-8436000D02*
G75*
G03*
X13154000Y-8636000I200000J0D01*
G01*
X13716000Y-8736000D02*
G75*
G03*
X13616000Y-8636000I-100000J0D01*
G01*
X15848000Y-8636000D02*
G75*
G03*
X15748000Y-8736000I0J-100000D01*
G01*
X13716000Y-12854000D02*
G75*
G03*
X13816000Y-12954000I100000J0D01*
G01*
X15648000Y-12954000D02*
G75*
G03*
X15748000Y-12854000I0J100000D01*
G01*
X16310000Y-4826000D02*
X13154000Y-4827000D01*
X16510000Y-5026000D02*
X16510000Y-8436000D01*
X12954000Y-8436000D02*
X12954000Y-5027000D01*
X13616000Y-8636000D02*
X13154000Y-8636000D01*
X15848000Y-8636000D02*
X16310000Y-8636000D01*
X15748000Y-8736000D02*
X15748000Y-12854000D01*
X13716000Y-12854000D02*
X13716000Y-8736000D01*
X15648000Y-12954000D02*
X13816000Y-12954000D01*
D11*
X13209777Y-13270484D02*
X13209777Y-13070484D01*
X13209777Y-13070484D02*
X13257396Y-13070484D01*
X13257396Y-13070484D02*
X13285967Y-13080008D01*
X13285967Y-13080008D02*
X13305015Y-13099055D01*
X13305015Y-13099055D02*
X13314539Y-13118103D01*
X13314539Y-13118103D02*
X13324062Y-13156198D01*
X13324062Y-13156198D02*
X13324062Y-13184769D01*
X13324062Y-13184769D02*
X13314539Y-13222865D01*
X13314539Y-13222865D02*
X13305015Y-13241912D01*
X13305015Y-13241912D02*
X13285967Y-13260960D01*
X13285967Y-13260960D02*
X13257396Y-13270484D01*
X13257396Y-13270484D02*
X13209777Y-13270484D01*
X13409777Y-13270484D02*
X13409777Y-13137150D01*
X13409777Y-13175246D02*
X13419301Y-13156198D01*
X13419301Y-13156198D02*
X13428824Y-13146674D01*
X13428824Y-13146674D02*
X13447872Y-13137150D01*
X13447872Y-13137150D02*
X13466920Y-13137150D01*
X13533586Y-13270484D02*
X13533586Y-13137150D01*
X13533586Y-13070484D02*
X13524062Y-13080008D01*
X13524062Y-13080008D02*
X13533586Y-13089531D01*
X13533586Y-13089531D02*
X13543110Y-13080008D01*
X13543110Y-13080008D02*
X13533586Y-13070484D01*
X13533586Y-13070484D02*
X13533586Y-13089531D01*
X13657396Y-13270484D02*
X13638348Y-13260960D01*
X13638348Y-13260960D02*
X13628824Y-13241912D01*
X13628824Y-13241912D02*
X13628824Y-13070484D01*
X13762158Y-13270484D02*
X13743110Y-13260960D01*
X13743110Y-13260960D02*
X13733586Y-13241912D01*
X13733586Y-13241912D02*
X13733586Y-13070484D01*
X13990729Y-13270484D02*
X13990729Y-13070484D01*
X13990729Y-13070484D02*
X14057396Y-13213341D01*
X14057396Y-13213341D02*
X14124062Y-13070484D01*
X14124062Y-13070484D02*
X14124062Y-13270484D01*
X14305015Y-13270484D02*
X14305015Y-13165722D01*
X14305015Y-13165722D02*
X14295491Y-13146674D01*
X14295491Y-13146674D02*
X14276443Y-13137150D01*
X14276443Y-13137150D02*
X14238348Y-13137150D01*
X14238348Y-13137150D02*
X14219301Y-13146674D01*
X14305015Y-13260960D02*
X14285967Y-13270484D01*
X14285967Y-13270484D02*
X14238348Y-13270484D01*
X14238348Y-13270484D02*
X14219301Y-13260960D01*
X14219301Y-13260960D02*
X14209777Y-13241912D01*
X14209777Y-13241912D02*
X14209777Y-13222865D01*
X14209777Y-13222865D02*
X14219301Y-13203817D01*
X14219301Y-13203817D02*
X14238348Y-13194293D01*
X14238348Y-13194293D02*
X14285967Y-13194293D01*
X14285967Y-13194293D02*
X14305015Y-13184769D01*
X14400253Y-13137150D02*
X14400253Y-13337150D01*
X14400253Y-13146674D02*
X14419301Y-13137150D01*
X14419301Y-13137150D02*
X14457396Y-13137150D01*
X14457396Y-13137150D02*
X14476443Y-13146674D01*
X14476443Y-13146674D02*
X14485967Y-13156198D01*
X14485967Y-13156198D02*
X14495491Y-13175246D01*
X14495491Y-13175246D02*
X14495491Y-13232388D01*
X14495491Y-13232388D02*
X14485967Y-13251436D01*
X14485967Y-13251436D02*
X14476443Y-13260960D01*
X14476443Y-13260960D02*
X14457396Y-13270484D01*
X14457396Y-13270484D02*
X14419301Y-13270484D01*
X14419301Y-13270484D02*
X14400253Y-13260960D01*
X14581205Y-13251436D02*
X14590729Y-13260960D01*
X14590729Y-13260960D02*
X14581205Y-13270484D01*
X14581205Y-13270484D02*
X14571682Y-13260960D01*
X14571682Y-13260960D02*
X14581205Y-13251436D01*
X14581205Y-13251436D02*
X14581205Y-13270484D01*
X14581205Y-13146674D02*
X14590729Y-13156198D01*
X14590729Y-13156198D02*
X14581205Y-13165722D01*
X14581205Y-13165722D02*
X14571682Y-13156198D01*
X14571682Y-13156198D02*
X14581205Y-13146674D01*
X14581205Y-13146674D02*
X14581205Y-13165722D01*
M02*
