%TF.GenerationSoftware,KiCad,Pcbnew,7.0.7-2.fc38*%
%TF.CreationDate,2024-02-23T01:30:43-08:00*%
%TF.ProjectId,SparrowBreadboardAdapter,53706172-726f-4774-9272-656164626f61,rev?*%
%TF.SameCoordinates,Original*%
%TF.FileFunction,Legend,Bot*%
%TF.FilePolarity,Positive*%
%FSLAX46Y46*%
G04 Gerber Fmt 4.6, Leading zero omitted, Abs format (unit mm)*
G04 Created by KiCad (PCBNEW 7.0.7-2.fc38) date 2024-02-23 01:30:43*
%MOMM*%
%LPD*%
G01*
G04 APERTURE LIST*
%ADD10C,0.150000*%
%ADD11C,0.120000*%
G04 APERTURE END LIST*
D10*
X155273333Y-86024819D02*
X155273333Y-86739104D01*
X155273333Y-86739104D02*
X155320952Y-86881961D01*
X155320952Y-86881961D02*
X155416190Y-86977200D01*
X155416190Y-86977200D02*
X155559047Y-87024819D01*
X155559047Y-87024819D02*
X155654285Y-87024819D01*
X154844761Y-86120057D02*
X154797142Y-86072438D01*
X154797142Y-86072438D02*
X154701904Y-86024819D01*
X154701904Y-86024819D02*
X154463809Y-86024819D01*
X154463809Y-86024819D02*
X154368571Y-86072438D01*
X154368571Y-86072438D02*
X154320952Y-86120057D01*
X154320952Y-86120057D02*
X154273333Y-86215295D01*
X154273333Y-86215295D02*
X154273333Y-86310533D01*
X154273333Y-86310533D02*
X154320952Y-86453390D01*
X154320952Y-86453390D02*
X154892380Y-87024819D01*
X154892380Y-87024819D02*
X154273333Y-87024819D01*
X140033333Y-86024819D02*
X140033333Y-86739104D01*
X140033333Y-86739104D02*
X140080952Y-86881961D01*
X140080952Y-86881961D02*
X140176190Y-86977200D01*
X140176190Y-86977200D02*
X140319047Y-87024819D01*
X140319047Y-87024819D02*
X140414285Y-87024819D01*
X139033333Y-87024819D02*
X139604761Y-87024819D01*
X139319047Y-87024819D02*
X139319047Y-86024819D01*
X139319047Y-86024819D02*
X139414285Y-86167676D01*
X139414285Y-86167676D02*
X139509523Y-86262914D01*
X139509523Y-86262914D02*
X139604761Y-86310533D01*
D11*
%TO.C,J2*%
X156270000Y-87570000D02*
X154940000Y-87570000D01*
X156270000Y-88900000D02*
X156270000Y-87570000D01*
X156270000Y-90170000D02*
X156270000Y-128330000D01*
X156270000Y-90170000D02*
X153610000Y-90170000D01*
X156270000Y-128330000D02*
X153610000Y-128330000D01*
X153610000Y-90170000D02*
X153610000Y-128330000D01*
%TO.C,J1*%
X141030000Y-87570000D02*
X139700000Y-87570000D01*
X141030000Y-88900000D02*
X141030000Y-87570000D01*
X141030000Y-90170000D02*
X141030000Y-128330000D01*
X141030000Y-90170000D02*
X138370000Y-90170000D01*
X141030000Y-128330000D02*
X138370000Y-128330000D01*
X138370000Y-90170000D02*
X138370000Y-128330000D01*
%TD*%
M02*
