M48
; DRILL file {KiCad 7.0.7-2.fc38} date Fri Feb 23 01:30:48 2024
; FORMAT={-:-/ absolute / metric / decimal}
; #@! TF.CreationDate,2024-02-23T01:30:48-08:00
; #@! TF.GenerationSoftware,Kicad,Pcbnew,7.0.7-2.fc38
; #@! TF.FileFunction,Plated,1,2,PTH
FMAT,2
METRIC
; #@! TA.AperFunction,Plated,PTH,ViaDrill
T1C0.400
; #@! TA.AperFunction,Plated,PTH,ComponentDrill
T2C1.000
; #@! TA.AperFunction,Plated,PTH,ComponentDrill
T3C1.200
%
G90
G05
T1
X131.5Y-49.5
X132.6Y-83.8
X133.5Y-49.5
X133.8Y-83.8
X135.0Y-83.8
X135.5Y-49.5
X139.6Y-67.2
X140.8Y-67.2
X140.8Y-68.4
X142.0Y-67.2
X142.0Y-68.4
X142.0Y-69.6
X148.4Y-121.2
X148.4Y-122.2
X151.2Y-61.8
X151.2Y-63.0
X152.4Y-61.8
X152.4Y-63.0
X160.2Y-83.8
X161.2Y-83.8
X162.2Y-83.8
T2
X133.25Y-63.5
X133.25Y-66.04
X133.25Y-68.58
X133.25Y-71.12
X133.25Y-73.66
X133.25Y-76.2
X133.25Y-78.74
X133.25Y-81.28
X135.79Y-63.5
X135.79Y-66.04
X135.79Y-68.58
X135.79Y-71.12
X135.79Y-73.66
X135.79Y-76.2
X135.79Y-78.74
X135.79Y-81.28
X139.7Y-88.9
X139.7Y-91.44
X139.7Y-93.98
X139.7Y-96.52
X139.7Y-99.06
X139.7Y-101.6
X139.7Y-104.14
X139.7Y-106.68
X139.7Y-109.22
X139.7Y-111.76
X139.7Y-114.3
X139.7Y-116.84
X139.7Y-119.38
X139.7Y-121.92
X139.7Y-124.46
X139.7Y-127.0
X154.94Y-88.9
X154.94Y-91.44
X154.94Y-93.98
X154.94Y-96.52
X154.94Y-99.06
X154.94Y-101.6
X154.94Y-104.14
X154.94Y-106.68
X154.94Y-109.22
X154.94Y-111.76
X154.94Y-114.3
X154.94Y-116.84
X154.94Y-119.38
X154.94Y-121.92
X154.94Y-124.46
X154.94Y-127.0
X158.65Y-63.5
X158.65Y-66.04
X158.65Y-68.58
X158.65Y-71.12
X158.65Y-73.66
X158.65Y-76.2
X158.65Y-78.74
X158.65Y-81.28
X161.19Y-63.5
X161.19Y-66.04
X161.19Y-68.58
X161.19Y-71.12
X161.19Y-73.66
X161.19Y-76.2
X161.19Y-78.74
X161.19Y-81.28
T3
X135.18Y-55.4
X138.99Y-55.4
X142.8Y-55.4
X150.64Y-53.2
X153.18Y-53.2
X155.72Y-53.2
X158.26Y-53.2
X160.8Y-53.2
T0
M30
