%TF.GenerationSoftware,KiCad,Pcbnew,7.0.7-2.fc38*%
%TF.CreationDate,2024-02-23T01:30:49-08:00*%
%TF.ProjectId,SparrowBreadboardAdapter,53706172-726f-4774-9272-656164626f61,rev?*%
%TF.SameCoordinates,Original*%
%TF.FileFunction,Drillmap*%
%TF.FilePolarity,Positive*%
%FSLAX45Y45*%
G04 Gerber Fmt 4.5, Leading zero omitted, Abs format (unit mm)*
G04 Created by KiCad (PCBNEW 7.0.7-2.fc38) date 2024-02-23 01:30:49*
%MOMM*%
%LPD*%
G01*
G04 APERTURE LIST*
%ADD10C,0.100000*%
%ADD11C,0.200000*%
%ADD12C,0.040000*%
%ADD13C,0.120000*%
G04 APERTURE END LIST*
D10*
X13154000Y-4827000D02*
G75*
G03*
X12954000Y-5027000I0J-200000D01*
G01*
X16510000Y-5026000D02*
G75*
G03*
X16310000Y-4826000I-200000J0D01*
G01*
X16310000Y-8636000D02*
G75*
G03*
X16510000Y-8436000I0J200000D01*
G01*
X12954000Y-8436000D02*
G75*
G03*
X13154000Y-8636000I200000J0D01*
G01*
X13716000Y-8736000D02*
G75*
G03*
X13616000Y-8636000I-100000J0D01*
G01*
X15848000Y-8636000D02*
G75*
G03*
X15748000Y-8736000I0J-100000D01*
G01*
X13716000Y-12854000D02*
G75*
G03*
X13816000Y-12954000I100000J0D01*
G01*
X15648000Y-12954000D02*
G75*
G03*
X15748000Y-12854000I0J100000D01*
G01*
X16310000Y-4826000D02*
X13154000Y-4827000D01*
X16510000Y-5026000D02*
X16510000Y-8436000D01*
X12954000Y-8436000D02*
X12954000Y-5027000D01*
X13616000Y-8636000D02*
X13154000Y-8636000D01*
X15848000Y-8636000D02*
X16310000Y-8636000D01*
X15748000Y-8736000D02*
X15748000Y-12854000D01*
X13716000Y-12854000D02*
X13716000Y-8736000D01*
X15648000Y-12954000D02*
X13816000Y-12954000D01*
D11*
D12*
X13130000Y-4930000D02*
X13170000Y-4970000D01*
X13170000Y-4930000D02*
X13130000Y-4970000D01*
X13240000Y-8360000D02*
X13280000Y-8400000D01*
X13280000Y-8360000D02*
X13240000Y-8400000D01*
X13330000Y-4930000D02*
X13370000Y-4970000D01*
X13370000Y-4930000D02*
X13330000Y-4970000D01*
X13360000Y-8360000D02*
X13400000Y-8400000D01*
X13400000Y-8360000D02*
X13360000Y-8400000D01*
X13480000Y-8360000D02*
X13520000Y-8400000D01*
X13520000Y-8360000D02*
X13480000Y-8400000D01*
X13530000Y-4930000D02*
X13570000Y-4970000D01*
X13570000Y-4930000D02*
X13530000Y-4970000D01*
X13940000Y-6700000D02*
X13980000Y-6740000D01*
X13980000Y-6700000D02*
X13940000Y-6740000D01*
X14060000Y-6700000D02*
X14100000Y-6740000D01*
X14100000Y-6700000D02*
X14060000Y-6740000D01*
X14060000Y-6820000D02*
X14100000Y-6860000D01*
X14100000Y-6820000D02*
X14060000Y-6860000D01*
X14180000Y-6700000D02*
X14220000Y-6740000D01*
X14220000Y-6700000D02*
X14180000Y-6740000D01*
X14180000Y-6820000D02*
X14220000Y-6860000D01*
X14220000Y-6820000D02*
X14180000Y-6860000D01*
X14180000Y-6940000D02*
X14220000Y-6980000D01*
X14220000Y-6940000D02*
X14180000Y-6980000D01*
X14820000Y-12100000D02*
X14860000Y-12140000D01*
X14860000Y-12100000D02*
X14820000Y-12140000D01*
X14820000Y-12200000D02*
X14860000Y-12240000D01*
X14860000Y-12200000D02*
X14820000Y-12240000D01*
X15100000Y-6160000D02*
X15140000Y-6200000D01*
X15140000Y-6160000D02*
X15100000Y-6200000D01*
X15100000Y-6280000D02*
X15140000Y-6320000D01*
X15140000Y-6280000D02*
X15100000Y-6320000D01*
X15220000Y-6160000D02*
X15260000Y-6200000D01*
X15260000Y-6160000D02*
X15220000Y-6200000D01*
X15220000Y-6280000D02*
X15260000Y-6320000D01*
X15260000Y-6280000D02*
X15220000Y-6320000D01*
X16000000Y-8360000D02*
X16040000Y-8400000D01*
X16040000Y-8360000D02*
X16000000Y-8400000D01*
X16100000Y-8360000D02*
X16140000Y-8400000D01*
X16140000Y-8360000D02*
X16100000Y-8400000D01*
X16200000Y-8360000D02*
X16240000Y-8400000D01*
X16240000Y-8360000D02*
X16200000Y-8400000D01*
D10*
X13375000Y-6350000D02*
G75*
G03*
X13375000Y-6350000I-50000J0D01*
G01*
X13375000Y-6604000D02*
G75*
G03*
X13375000Y-6604000I-50000J0D01*
G01*
X13375000Y-6858000D02*
G75*
G03*
X13375000Y-6858000I-50000J0D01*
G01*
X13375000Y-7112000D02*
G75*
G03*
X13375000Y-7112000I-50000J0D01*
G01*
X13375000Y-7366000D02*
G75*
G03*
X13375000Y-7366000I-50000J0D01*
G01*
X13375000Y-7620000D02*
G75*
G03*
X13375000Y-7620000I-50000J0D01*
G01*
X13375000Y-7874000D02*
G75*
G03*
X13375000Y-7874000I-50000J0D01*
G01*
X13375000Y-8128000D02*
G75*
G03*
X13375000Y-8128000I-50000J0D01*
G01*
X13629000Y-6350000D02*
G75*
G03*
X13629000Y-6350000I-50000J0D01*
G01*
X13629000Y-6604000D02*
G75*
G03*
X13629000Y-6604000I-50000J0D01*
G01*
X13629000Y-6858000D02*
G75*
G03*
X13629000Y-6858000I-50000J0D01*
G01*
X13629000Y-7112000D02*
G75*
G03*
X13629000Y-7112000I-50000J0D01*
G01*
X13629000Y-7366000D02*
G75*
G03*
X13629000Y-7366000I-50000J0D01*
G01*
X13629000Y-7620000D02*
G75*
G03*
X13629000Y-7620000I-50000J0D01*
G01*
X13629000Y-7874000D02*
G75*
G03*
X13629000Y-7874000I-50000J0D01*
G01*
X13629000Y-8128000D02*
G75*
G03*
X13629000Y-8128000I-50000J0D01*
G01*
X14020000Y-8890000D02*
G75*
G03*
X14020000Y-8890000I-50000J0D01*
G01*
X14020000Y-9144000D02*
G75*
G03*
X14020000Y-9144000I-50000J0D01*
G01*
X14020000Y-9398000D02*
G75*
G03*
X14020000Y-9398000I-50000J0D01*
G01*
X14020000Y-9652000D02*
G75*
G03*
X14020000Y-9652000I-50000J0D01*
G01*
X14020000Y-9906000D02*
G75*
G03*
X14020000Y-9906000I-50000J0D01*
G01*
X14020000Y-10160000D02*
G75*
G03*
X14020000Y-10160000I-50000J0D01*
G01*
X14020000Y-10414000D02*
G75*
G03*
X14020000Y-10414000I-50000J0D01*
G01*
X14020000Y-10668000D02*
G75*
G03*
X14020000Y-10668000I-50000J0D01*
G01*
X14020000Y-10922000D02*
G75*
G03*
X14020000Y-10922000I-50000J0D01*
G01*
X14020000Y-11176000D02*
G75*
G03*
X14020000Y-11176000I-50000J0D01*
G01*
X14020000Y-11430000D02*
G75*
G03*
X14020000Y-11430000I-50000J0D01*
G01*
X14020000Y-11684000D02*
G75*
G03*
X14020000Y-11684000I-50000J0D01*
G01*
X14020000Y-11938000D02*
G75*
G03*
X14020000Y-11938000I-50000J0D01*
G01*
X14020000Y-12192000D02*
G75*
G03*
X14020000Y-12192000I-50000J0D01*
G01*
X14020000Y-12446000D02*
G75*
G03*
X14020000Y-12446000I-50000J0D01*
G01*
X14020000Y-12700000D02*
G75*
G03*
X14020000Y-12700000I-50000J0D01*
G01*
X15544000Y-8890000D02*
G75*
G03*
X15544000Y-8890000I-50000J0D01*
G01*
X15544000Y-9144000D02*
G75*
G03*
X15544000Y-9144000I-50000J0D01*
G01*
X15544000Y-9398000D02*
G75*
G03*
X15544000Y-9398000I-50000J0D01*
G01*
X15544000Y-9652000D02*
G75*
G03*
X15544000Y-9652000I-50000J0D01*
G01*
X15544000Y-9906000D02*
G75*
G03*
X15544000Y-9906000I-50000J0D01*
G01*
X15544000Y-10160000D02*
G75*
G03*
X15544000Y-10160000I-50000J0D01*
G01*
X15544000Y-10414000D02*
G75*
G03*
X15544000Y-10414000I-50000J0D01*
G01*
X15544000Y-10668000D02*
G75*
G03*
X15544000Y-10668000I-50000J0D01*
G01*
X15544000Y-10922000D02*
G75*
G03*
X15544000Y-10922000I-50000J0D01*
G01*
X15544000Y-11176000D02*
G75*
G03*
X15544000Y-11176000I-50000J0D01*
G01*
X15544000Y-11430000D02*
G75*
G03*
X15544000Y-11430000I-50000J0D01*
G01*
X15544000Y-11684000D02*
G75*
G03*
X15544000Y-11684000I-50000J0D01*
G01*
X15544000Y-11938000D02*
G75*
G03*
X15544000Y-11938000I-50000J0D01*
G01*
X15544000Y-12192000D02*
G75*
G03*
X15544000Y-12192000I-50000J0D01*
G01*
X15544000Y-12446000D02*
G75*
G03*
X15544000Y-12446000I-50000J0D01*
G01*
X15544000Y-12700000D02*
G75*
G03*
X15544000Y-12700000I-50000J0D01*
G01*
X15915000Y-6350000D02*
G75*
G03*
X15915000Y-6350000I-50000J0D01*
G01*
X15915000Y-6604000D02*
G75*
G03*
X15915000Y-6604000I-50000J0D01*
G01*
X15915000Y-6858000D02*
G75*
G03*
X15915000Y-6858000I-50000J0D01*
G01*
X15915000Y-7112000D02*
G75*
G03*
X15915000Y-7112000I-50000J0D01*
G01*
X15915000Y-7366000D02*
G75*
G03*
X15915000Y-7366000I-50000J0D01*
G01*
X15915000Y-7620000D02*
G75*
G03*
X15915000Y-7620000I-50000J0D01*
G01*
X15915000Y-7874000D02*
G75*
G03*
X15915000Y-7874000I-50000J0D01*
G01*
X15915000Y-8128000D02*
G75*
G03*
X15915000Y-8128000I-50000J0D01*
G01*
X16169000Y-6350000D02*
G75*
G03*
X16169000Y-6350000I-50000J0D01*
G01*
X16169000Y-6604000D02*
G75*
G03*
X16169000Y-6604000I-50000J0D01*
G01*
X16169000Y-6858000D02*
G75*
G03*
X16169000Y-6858000I-50000J0D01*
G01*
X16169000Y-7112000D02*
G75*
G03*
X16169000Y-7112000I-50000J0D01*
G01*
X16169000Y-7366000D02*
G75*
G03*
X16169000Y-7366000I-50000J0D01*
G01*
X16169000Y-7620000D02*
G75*
G03*
X16169000Y-7620000I-50000J0D01*
G01*
X16169000Y-7874000D02*
G75*
G03*
X16169000Y-7874000I-50000J0D01*
G01*
X16169000Y-8128000D02*
G75*
G03*
X16169000Y-8128000I-50000J0D01*
G01*
D13*
X13518000Y-5480000D02*
X13518000Y-5600000D01*
X13458000Y-5540000D02*
X13578000Y-5540000D01*
X13899000Y-5480000D02*
X13899000Y-5600000D01*
X13839000Y-5540000D02*
X13959000Y-5540000D01*
X14280000Y-5480000D02*
X14280000Y-5600000D01*
X14220000Y-5540000D02*
X14340000Y-5540000D01*
X15063998Y-5260000D02*
X15063998Y-5380000D01*
X15003998Y-5320000D02*
X15123998Y-5320000D01*
X15317998Y-5260000D02*
X15317998Y-5380000D01*
X15257998Y-5320000D02*
X15377998Y-5320000D01*
X15571999Y-5260000D02*
X15571999Y-5380000D01*
X15511999Y-5320000D02*
X15631999Y-5320000D01*
X15825999Y-5260000D02*
X15825999Y-5380000D01*
X15765999Y-5320000D02*
X15885999Y-5320000D01*
X16080000Y-5260000D02*
X16080000Y-5380000D01*
X16020000Y-5320000D02*
X16140000Y-5320000D01*
D11*
X13209777Y-13270484D02*
X13209777Y-13070484D01*
X13209777Y-13070484D02*
X13257396Y-13070484D01*
X13257396Y-13070484D02*
X13285967Y-13080008D01*
X13285967Y-13080008D02*
X13305015Y-13099055D01*
X13305015Y-13099055D02*
X13314539Y-13118103D01*
X13314539Y-13118103D02*
X13324062Y-13156198D01*
X13324062Y-13156198D02*
X13324062Y-13184769D01*
X13324062Y-13184769D02*
X13314539Y-13222865D01*
X13314539Y-13222865D02*
X13305015Y-13241912D01*
X13305015Y-13241912D02*
X13285967Y-13260960D01*
X13285967Y-13260960D02*
X13257396Y-13270484D01*
X13257396Y-13270484D02*
X13209777Y-13270484D01*
X13409777Y-13270484D02*
X13409777Y-13137150D01*
X13409777Y-13175246D02*
X13419301Y-13156198D01*
X13419301Y-13156198D02*
X13428824Y-13146674D01*
X13428824Y-13146674D02*
X13447872Y-13137150D01*
X13447872Y-13137150D02*
X13466920Y-13137150D01*
X13533586Y-13270484D02*
X13533586Y-13137150D01*
X13533586Y-13070484D02*
X13524062Y-13080008D01*
X13524062Y-13080008D02*
X13533586Y-13089531D01*
X13533586Y-13089531D02*
X13543110Y-13080008D01*
X13543110Y-13080008D02*
X13533586Y-13070484D01*
X13533586Y-13070484D02*
X13533586Y-13089531D01*
X13657396Y-13270484D02*
X13638348Y-13260960D01*
X13638348Y-13260960D02*
X13628824Y-13241912D01*
X13628824Y-13241912D02*
X13628824Y-13070484D01*
X13762158Y-13270484D02*
X13743110Y-13260960D01*
X13743110Y-13260960D02*
X13733586Y-13241912D01*
X13733586Y-13241912D02*
X13733586Y-13070484D01*
X13990729Y-13270484D02*
X13990729Y-13070484D01*
X13990729Y-13070484D02*
X14057396Y-13213341D01*
X14057396Y-13213341D02*
X14124062Y-13070484D01*
X14124062Y-13070484D02*
X14124062Y-13270484D01*
X14305015Y-13270484D02*
X14305015Y-13165722D01*
X14305015Y-13165722D02*
X14295491Y-13146674D01*
X14295491Y-13146674D02*
X14276443Y-13137150D01*
X14276443Y-13137150D02*
X14238348Y-13137150D01*
X14238348Y-13137150D02*
X14219301Y-13146674D01*
X14305015Y-13260960D02*
X14285967Y-13270484D01*
X14285967Y-13270484D02*
X14238348Y-13270484D01*
X14238348Y-13270484D02*
X14219301Y-13260960D01*
X14219301Y-13260960D02*
X14209777Y-13241912D01*
X14209777Y-13241912D02*
X14209777Y-13222865D01*
X14209777Y-13222865D02*
X14219301Y-13203817D01*
X14219301Y-13203817D02*
X14238348Y-13194293D01*
X14238348Y-13194293D02*
X14285967Y-13194293D01*
X14285967Y-13194293D02*
X14305015Y-13184769D01*
X14400253Y-13137150D02*
X14400253Y-13337150D01*
X14400253Y-13146674D02*
X14419301Y-13137150D01*
X14419301Y-13137150D02*
X14457396Y-13137150D01*
X14457396Y-13137150D02*
X14476443Y-13146674D01*
X14476443Y-13146674D02*
X14485967Y-13156198D01*
X14485967Y-13156198D02*
X14495491Y-13175246D01*
X14495491Y-13175246D02*
X14495491Y-13232388D01*
X14495491Y-13232388D02*
X14485967Y-13251436D01*
X14485967Y-13251436D02*
X14476443Y-13260960D01*
X14476443Y-13260960D02*
X14457396Y-13270484D01*
X14457396Y-13270484D02*
X14419301Y-13270484D01*
X14419301Y-13270484D02*
X14400253Y-13260960D01*
X14581205Y-13251436D02*
X14590729Y-13260960D01*
X14590729Y-13260960D02*
X14581205Y-13270484D01*
X14581205Y-13270484D02*
X14571682Y-13260960D01*
X14571682Y-13260960D02*
X14581205Y-13251436D01*
X14581205Y-13251436D02*
X14581205Y-13270484D01*
X14581205Y-13146674D02*
X14590729Y-13156198D01*
X14590729Y-13156198D02*
X14581205Y-13165722D01*
X14581205Y-13165722D02*
X14571682Y-13156198D01*
X14571682Y-13156198D02*
X14581205Y-13146674D01*
X14581205Y-13146674D02*
X14581205Y-13165722D01*
D12*
X12909000Y-13579000D02*
X12949000Y-13619000D01*
X12949000Y-13579000D02*
X12909000Y-13619000D01*
D11*
X13247872Y-13490484D02*
X13266920Y-13490484D01*
X13266920Y-13490484D02*
X13285967Y-13500008D01*
X13285967Y-13500008D02*
X13295491Y-13509531D01*
X13295491Y-13509531D02*
X13305015Y-13528579D01*
X13305015Y-13528579D02*
X13314539Y-13566674D01*
X13314539Y-13566674D02*
X13314539Y-13614293D01*
X13314539Y-13614293D02*
X13305015Y-13652388D01*
X13305015Y-13652388D02*
X13295491Y-13671436D01*
X13295491Y-13671436D02*
X13285967Y-13680960D01*
X13285967Y-13680960D02*
X13266920Y-13690484D01*
X13266920Y-13690484D02*
X13247872Y-13690484D01*
X13247872Y-13690484D02*
X13228824Y-13680960D01*
X13228824Y-13680960D02*
X13219301Y-13671436D01*
X13219301Y-13671436D02*
X13209777Y-13652388D01*
X13209777Y-13652388D02*
X13200253Y-13614293D01*
X13200253Y-13614293D02*
X13200253Y-13566674D01*
X13200253Y-13566674D02*
X13209777Y-13528579D01*
X13209777Y-13528579D02*
X13219301Y-13509531D01*
X13219301Y-13509531D02*
X13228824Y-13500008D01*
X13228824Y-13500008D02*
X13247872Y-13490484D01*
X13400253Y-13671436D02*
X13409777Y-13680960D01*
X13409777Y-13680960D02*
X13400253Y-13690484D01*
X13400253Y-13690484D02*
X13390729Y-13680960D01*
X13390729Y-13680960D02*
X13400253Y-13671436D01*
X13400253Y-13671436D02*
X13400253Y-13690484D01*
X13581205Y-13557150D02*
X13581205Y-13690484D01*
X13533586Y-13480960D02*
X13485967Y-13623817D01*
X13485967Y-13623817D02*
X13609777Y-13623817D01*
X13724062Y-13490484D02*
X13743110Y-13490484D01*
X13743110Y-13490484D02*
X13762158Y-13500008D01*
X13762158Y-13500008D02*
X13771682Y-13509531D01*
X13771682Y-13509531D02*
X13781205Y-13528579D01*
X13781205Y-13528579D02*
X13790729Y-13566674D01*
X13790729Y-13566674D02*
X13790729Y-13614293D01*
X13790729Y-13614293D02*
X13781205Y-13652388D01*
X13781205Y-13652388D02*
X13771682Y-13671436D01*
X13771682Y-13671436D02*
X13762158Y-13680960D01*
X13762158Y-13680960D02*
X13743110Y-13690484D01*
X13743110Y-13690484D02*
X13724062Y-13690484D01*
X13724062Y-13690484D02*
X13705015Y-13680960D01*
X13705015Y-13680960D02*
X13695491Y-13671436D01*
X13695491Y-13671436D02*
X13685967Y-13652388D01*
X13685967Y-13652388D02*
X13676443Y-13614293D01*
X13676443Y-13614293D02*
X13676443Y-13566674D01*
X13676443Y-13566674D02*
X13685967Y-13528579D01*
X13685967Y-13528579D02*
X13695491Y-13509531D01*
X13695491Y-13509531D02*
X13705015Y-13500008D01*
X13705015Y-13500008D02*
X13724062Y-13490484D01*
X13914539Y-13490484D02*
X13933586Y-13490484D01*
X13933586Y-13490484D02*
X13952634Y-13500008D01*
X13952634Y-13500008D02*
X13962158Y-13509531D01*
X13962158Y-13509531D02*
X13971682Y-13528579D01*
X13971682Y-13528579D02*
X13981205Y-13566674D01*
X13981205Y-13566674D02*
X13981205Y-13614293D01*
X13981205Y-13614293D02*
X13971682Y-13652388D01*
X13971682Y-13652388D02*
X13962158Y-13671436D01*
X13962158Y-13671436D02*
X13952634Y-13680960D01*
X13952634Y-13680960D02*
X13933586Y-13690484D01*
X13933586Y-13690484D02*
X13914539Y-13690484D01*
X13914539Y-13690484D02*
X13895491Y-13680960D01*
X13895491Y-13680960D02*
X13885967Y-13671436D01*
X13885967Y-13671436D02*
X13876443Y-13652388D01*
X13876443Y-13652388D02*
X13866920Y-13614293D01*
X13866920Y-13614293D02*
X13866920Y-13566674D01*
X13866920Y-13566674D02*
X13876443Y-13528579D01*
X13876443Y-13528579D02*
X13885967Y-13509531D01*
X13885967Y-13509531D02*
X13895491Y-13500008D01*
X13895491Y-13500008D02*
X13914539Y-13490484D01*
X14066920Y-13690484D02*
X14066920Y-13557150D01*
X14066920Y-13576198D02*
X14076443Y-13566674D01*
X14076443Y-13566674D02*
X14095491Y-13557150D01*
X14095491Y-13557150D02*
X14124063Y-13557150D01*
X14124063Y-13557150D02*
X14143110Y-13566674D01*
X14143110Y-13566674D02*
X14152634Y-13585722D01*
X14152634Y-13585722D02*
X14152634Y-13690484D01*
X14152634Y-13585722D02*
X14162158Y-13566674D01*
X14162158Y-13566674D02*
X14181205Y-13557150D01*
X14181205Y-13557150D02*
X14209777Y-13557150D01*
X14209777Y-13557150D02*
X14228824Y-13566674D01*
X14228824Y-13566674D02*
X14238348Y-13585722D01*
X14238348Y-13585722D02*
X14238348Y-13690484D01*
X14333586Y-13690484D02*
X14333586Y-13557150D01*
X14333586Y-13576198D02*
X14343110Y-13566674D01*
X14343110Y-13566674D02*
X14362158Y-13557150D01*
X14362158Y-13557150D02*
X14390729Y-13557150D01*
X14390729Y-13557150D02*
X14409777Y-13566674D01*
X14409777Y-13566674D02*
X14419301Y-13585722D01*
X14419301Y-13585722D02*
X14419301Y-13690484D01*
X14419301Y-13585722D02*
X14428824Y-13566674D01*
X14428824Y-13566674D02*
X14447872Y-13557150D01*
X14447872Y-13557150D02*
X14476443Y-13557150D01*
X14476443Y-13557150D02*
X14495491Y-13566674D01*
X14495491Y-13566674D02*
X14505015Y-13585722D01*
X14505015Y-13585722D02*
X14505015Y-13690484D01*
X14895491Y-13480960D02*
X14724063Y-13738103D01*
X15152634Y-13490484D02*
X15171682Y-13490484D01*
X15171682Y-13490484D02*
X15190729Y-13500008D01*
X15190729Y-13500008D02*
X15200253Y-13509531D01*
X15200253Y-13509531D02*
X15209777Y-13528579D01*
X15209777Y-13528579D02*
X15219301Y-13566674D01*
X15219301Y-13566674D02*
X15219301Y-13614293D01*
X15219301Y-13614293D02*
X15209777Y-13652388D01*
X15209777Y-13652388D02*
X15200253Y-13671436D01*
X15200253Y-13671436D02*
X15190729Y-13680960D01*
X15190729Y-13680960D02*
X15171682Y-13690484D01*
X15171682Y-13690484D02*
X15152634Y-13690484D01*
X15152634Y-13690484D02*
X15133586Y-13680960D01*
X15133586Y-13680960D02*
X15124063Y-13671436D01*
X15124063Y-13671436D02*
X15114539Y-13652388D01*
X15114539Y-13652388D02*
X15105015Y-13614293D01*
X15105015Y-13614293D02*
X15105015Y-13566674D01*
X15105015Y-13566674D02*
X15114539Y-13528579D01*
X15114539Y-13528579D02*
X15124063Y-13509531D01*
X15124063Y-13509531D02*
X15133586Y-13500008D01*
X15133586Y-13500008D02*
X15152634Y-13490484D01*
X15305015Y-13671436D02*
X15314539Y-13680960D01*
X15314539Y-13680960D02*
X15305015Y-13690484D01*
X15305015Y-13690484D02*
X15295491Y-13680960D01*
X15295491Y-13680960D02*
X15305015Y-13671436D01*
X15305015Y-13671436D02*
X15305015Y-13690484D01*
X15438348Y-13490484D02*
X15457396Y-13490484D01*
X15457396Y-13490484D02*
X15476444Y-13500008D01*
X15476444Y-13500008D02*
X15485967Y-13509531D01*
X15485967Y-13509531D02*
X15495491Y-13528579D01*
X15495491Y-13528579D02*
X15505015Y-13566674D01*
X15505015Y-13566674D02*
X15505015Y-13614293D01*
X15505015Y-13614293D02*
X15495491Y-13652388D01*
X15495491Y-13652388D02*
X15485967Y-13671436D01*
X15485967Y-13671436D02*
X15476444Y-13680960D01*
X15476444Y-13680960D02*
X15457396Y-13690484D01*
X15457396Y-13690484D02*
X15438348Y-13690484D01*
X15438348Y-13690484D02*
X15419301Y-13680960D01*
X15419301Y-13680960D02*
X15409777Y-13671436D01*
X15409777Y-13671436D02*
X15400253Y-13652388D01*
X15400253Y-13652388D02*
X15390729Y-13614293D01*
X15390729Y-13614293D02*
X15390729Y-13566674D01*
X15390729Y-13566674D02*
X15400253Y-13528579D01*
X15400253Y-13528579D02*
X15409777Y-13509531D01*
X15409777Y-13509531D02*
X15419301Y-13500008D01*
X15419301Y-13500008D02*
X15438348Y-13490484D01*
X15695491Y-13690484D02*
X15581206Y-13690484D01*
X15638348Y-13690484D02*
X15638348Y-13490484D01*
X15638348Y-13490484D02*
X15619301Y-13519055D01*
X15619301Y-13519055D02*
X15600253Y-13538103D01*
X15600253Y-13538103D02*
X15581206Y-13547627D01*
X15876444Y-13490484D02*
X15781206Y-13490484D01*
X15781206Y-13490484D02*
X15771682Y-13585722D01*
X15771682Y-13585722D02*
X15781206Y-13576198D01*
X15781206Y-13576198D02*
X15800253Y-13566674D01*
X15800253Y-13566674D02*
X15847872Y-13566674D01*
X15847872Y-13566674D02*
X15866920Y-13576198D01*
X15866920Y-13576198D02*
X15876444Y-13585722D01*
X15876444Y-13585722D02*
X15885967Y-13604769D01*
X15885967Y-13604769D02*
X15885967Y-13652388D01*
X15885967Y-13652388D02*
X15876444Y-13671436D01*
X15876444Y-13671436D02*
X15866920Y-13680960D01*
X15866920Y-13680960D02*
X15847872Y-13690484D01*
X15847872Y-13690484D02*
X15800253Y-13690484D01*
X15800253Y-13690484D02*
X15781206Y-13680960D01*
X15781206Y-13680960D02*
X15771682Y-13671436D01*
X15952634Y-13490484D02*
X16085967Y-13490484D01*
X16085967Y-13490484D02*
X16000253Y-13690484D01*
X16152634Y-13490484D02*
X16152634Y-13528579D01*
X16228825Y-13490484D02*
X16228825Y-13528579D01*
X16524063Y-13766674D02*
X16514539Y-13757150D01*
X16514539Y-13757150D02*
X16495491Y-13728579D01*
X16495491Y-13728579D02*
X16485968Y-13709531D01*
X16485968Y-13709531D02*
X16476444Y-13680960D01*
X16476444Y-13680960D02*
X16466920Y-13633341D01*
X16466920Y-13633341D02*
X16466920Y-13595246D01*
X16466920Y-13595246D02*
X16476444Y-13547627D01*
X16476444Y-13547627D02*
X16485968Y-13519055D01*
X16485968Y-13519055D02*
X16495491Y-13500008D01*
X16495491Y-13500008D02*
X16514539Y-13471436D01*
X16514539Y-13471436D02*
X16524063Y-13461912D01*
X16590729Y-13509531D02*
X16600253Y-13500008D01*
X16600253Y-13500008D02*
X16619301Y-13490484D01*
X16619301Y-13490484D02*
X16666920Y-13490484D01*
X16666920Y-13490484D02*
X16685968Y-13500008D01*
X16685968Y-13500008D02*
X16695491Y-13509531D01*
X16695491Y-13509531D02*
X16705015Y-13528579D01*
X16705015Y-13528579D02*
X16705015Y-13547627D01*
X16705015Y-13547627D02*
X16695491Y-13576198D01*
X16695491Y-13576198D02*
X16581206Y-13690484D01*
X16581206Y-13690484D02*
X16705015Y-13690484D01*
X16895491Y-13690484D02*
X16781206Y-13690484D01*
X16838349Y-13690484D02*
X16838349Y-13490484D01*
X16838349Y-13490484D02*
X16819301Y-13519055D01*
X16819301Y-13519055D02*
X16800253Y-13538103D01*
X16800253Y-13538103D02*
X16781206Y-13547627D01*
X17133587Y-13690484D02*
X17133587Y-13490484D01*
X17219301Y-13690484D02*
X17219301Y-13585722D01*
X17219301Y-13585722D02*
X17209777Y-13566674D01*
X17209777Y-13566674D02*
X17190730Y-13557150D01*
X17190730Y-13557150D02*
X17162158Y-13557150D01*
X17162158Y-13557150D02*
X17143111Y-13566674D01*
X17143111Y-13566674D02*
X17133587Y-13576198D01*
X17343111Y-13690484D02*
X17324063Y-13680960D01*
X17324063Y-13680960D02*
X17314539Y-13671436D01*
X17314539Y-13671436D02*
X17305015Y-13652388D01*
X17305015Y-13652388D02*
X17305015Y-13595246D01*
X17305015Y-13595246D02*
X17314539Y-13576198D01*
X17314539Y-13576198D02*
X17324063Y-13566674D01*
X17324063Y-13566674D02*
X17343111Y-13557150D01*
X17343111Y-13557150D02*
X17371682Y-13557150D01*
X17371682Y-13557150D02*
X17390730Y-13566674D01*
X17390730Y-13566674D02*
X17400253Y-13576198D01*
X17400253Y-13576198D02*
X17409777Y-13595246D01*
X17409777Y-13595246D02*
X17409777Y-13652388D01*
X17409777Y-13652388D02*
X17400253Y-13671436D01*
X17400253Y-13671436D02*
X17390730Y-13680960D01*
X17390730Y-13680960D02*
X17371682Y-13690484D01*
X17371682Y-13690484D02*
X17343111Y-13690484D01*
X17524063Y-13690484D02*
X17505015Y-13680960D01*
X17505015Y-13680960D02*
X17495492Y-13661912D01*
X17495492Y-13661912D02*
X17495492Y-13490484D01*
X17676444Y-13680960D02*
X17657396Y-13690484D01*
X17657396Y-13690484D02*
X17619301Y-13690484D01*
X17619301Y-13690484D02*
X17600253Y-13680960D01*
X17600253Y-13680960D02*
X17590730Y-13661912D01*
X17590730Y-13661912D02*
X17590730Y-13585722D01*
X17590730Y-13585722D02*
X17600253Y-13566674D01*
X17600253Y-13566674D02*
X17619301Y-13557150D01*
X17619301Y-13557150D02*
X17657396Y-13557150D01*
X17657396Y-13557150D02*
X17676444Y-13566674D01*
X17676444Y-13566674D02*
X17685968Y-13585722D01*
X17685968Y-13585722D02*
X17685968Y-13604769D01*
X17685968Y-13604769D02*
X17590730Y-13623817D01*
X17762158Y-13680960D02*
X17781206Y-13690484D01*
X17781206Y-13690484D02*
X17819301Y-13690484D01*
X17819301Y-13690484D02*
X17838349Y-13680960D01*
X17838349Y-13680960D02*
X17847873Y-13661912D01*
X17847873Y-13661912D02*
X17847873Y-13652388D01*
X17847873Y-13652388D02*
X17838349Y-13633341D01*
X17838349Y-13633341D02*
X17819301Y-13623817D01*
X17819301Y-13623817D02*
X17790730Y-13623817D01*
X17790730Y-13623817D02*
X17771682Y-13614293D01*
X17771682Y-13614293D02*
X17762158Y-13595246D01*
X17762158Y-13595246D02*
X17762158Y-13585722D01*
X17762158Y-13585722D02*
X17771682Y-13566674D01*
X17771682Y-13566674D02*
X17790730Y-13557150D01*
X17790730Y-13557150D02*
X17819301Y-13557150D01*
X17819301Y-13557150D02*
X17838349Y-13566674D01*
X17914539Y-13766674D02*
X17924063Y-13757150D01*
X17924063Y-13757150D02*
X17943111Y-13728579D01*
X17943111Y-13728579D02*
X17952634Y-13709531D01*
X17952634Y-13709531D02*
X17962158Y-13680960D01*
X17962158Y-13680960D02*
X17971682Y-13633341D01*
X17971682Y-13633341D02*
X17971682Y-13595246D01*
X17971682Y-13595246D02*
X17962158Y-13547627D01*
X17962158Y-13547627D02*
X17952634Y-13519055D01*
X17952634Y-13519055D02*
X17943111Y-13500008D01*
X17943111Y-13500008D02*
X17924063Y-13471436D01*
X17924063Y-13471436D02*
X17914539Y-13461912D01*
D10*
X12949000Y-13863000D02*
G75*
G03*
X12949000Y-13863000I-50000J0D01*
G01*
D11*
X13314539Y-13954484D02*
X13200253Y-13954484D01*
X13257396Y-13954484D02*
X13257396Y-13754484D01*
X13257396Y-13754484D02*
X13238348Y-13783055D01*
X13238348Y-13783055D02*
X13219301Y-13802103D01*
X13219301Y-13802103D02*
X13200253Y-13811627D01*
X13400253Y-13935436D02*
X13409777Y-13944960D01*
X13409777Y-13944960D02*
X13400253Y-13954484D01*
X13400253Y-13954484D02*
X13390729Y-13944960D01*
X13390729Y-13944960D02*
X13400253Y-13935436D01*
X13400253Y-13935436D02*
X13400253Y-13954484D01*
X13533586Y-13754484D02*
X13552634Y-13754484D01*
X13552634Y-13754484D02*
X13571682Y-13764008D01*
X13571682Y-13764008D02*
X13581205Y-13773531D01*
X13581205Y-13773531D02*
X13590729Y-13792579D01*
X13590729Y-13792579D02*
X13600253Y-13830674D01*
X13600253Y-13830674D02*
X13600253Y-13878293D01*
X13600253Y-13878293D02*
X13590729Y-13916388D01*
X13590729Y-13916388D02*
X13581205Y-13935436D01*
X13581205Y-13935436D02*
X13571682Y-13944960D01*
X13571682Y-13944960D02*
X13552634Y-13954484D01*
X13552634Y-13954484D02*
X13533586Y-13954484D01*
X13533586Y-13954484D02*
X13514539Y-13944960D01*
X13514539Y-13944960D02*
X13505015Y-13935436D01*
X13505015Y-13935436D02*
X13495491Y-13916388D01*
X13495491Y-13916388D02*
X13485967Y-13878293D01*
X13485967Y-13878293D02*
X13485967Y-13830674D01*
X13485967Y-13830674D02*
X13495491Y-13792579D01*
X13495491Y-13792579D02*
X13505015Y-13773531D01*
X13505015Y-13773531D02*
X13514539Y-13764008D01*
X13514539Y-13764008D02*
X13533586Y-13754484D01*
X13724062Y-13754484D02*
X13743110Y-13754484D01*
X13743110Y-13754484D02*
X13762158Y-13764008D01*
X13762158Y-13764008D02*
X13771682Y-13773531D01*
X13771682Y-13773531D02*
X13781205Y-13792579D01*
X13781205Y-13792579D02*
X13790729Y-13830674D01*
X13790729Y-13830674D02*
X13790729Y-13878293D01*
X13790729Y-13878293D02*
X13781205Y-13916388D01*
X13781205Y-13916388D02*
X13771682Y-13935436D01*
X13771682Y-13935436D02*
X13762158Y-13944960D01*
X13762158Y-13944960D02*
X13743110Y-13954484D01*
X13743110Y-13954484D02*
X13724062Y-13954484D01*
X13724062Y-13954484D02*
X13705015Y-13944960D01*
X13705015Y-13944960D02*
X13695491Y-13935436D01*
X13695491Y-13935436D02*
X13685967Y-13916388D01*
X13685967Y-13916388D02*
X13676443Y-13878293D01*
X13676443Y-13878293D02*
X13676443Y-13830674D01*
X13676443Y-13830674D02*
X13685967Y-13792579D01*
X13685967Y-13792579D02*
X13695491Y-13773531D01*
X13695491Y-13773531D02*
X13705015Y-13764008D01*
X13705015Y-13764008D02*
X13724062Y-13754484D01*
X13914539Y-13754484D02*
X13933586Y-13754484D01*
X13933586Y-13754484D02*
X13952634Y-13764008D01*
X13952634Y-13764008D02*
X13962158Y-13773531D01*
X13962158Y-13773531D02*
X13971682Y-13792579D01*
X13971682Y-13792579D02*
X13981205Y-13830674D01*
X13981205Y-13830674D02*
X13981205Y-13878293D01*
X13981205Y-13878293D02*
X13971682Y-13916388D01*
X13971682Y-13916388D02*
X13962158Y-13935436D01*
X13962158Y-13935436D02*
X13952634Y-13944960D01*
X13952634Y-13944960D02*
X13933586Y-13954484D01*
X13933586Y-13954484D02*
X13914539Y-13954484D01*
X13914539Y-13954484D02*
X13895491Y-13944960D01*
X13895491Y-13944960D02*
X13885967Y-13935436D01*
X13885967Y-13935436D02*
X13876443Y-13916388D01*
X13876443Y-13916388D02*
X13866920Y-13878293D01*
X13866920Y-13878293D02*
X13866920Y-13830674D01*
X13866920Y-13830674D02*
X13876443Y-13792579D01*
X13876443Y-13792579D02*
X13885967Y-13773531D01*
X13885967Y-13773531D02*
X13895491Y-13764008D01*
X13895491Y-13764008D02*
X13914539Y-13754484D01*
X14066920Y-13954484D02*
X14066920Y-13821150D01*
X14066920Y-13840198D02*
X14076443Y-13830674D01*
X14076443Y-13830674D02*
X14095491Y-13821150D01*
X14095491Y-13821150D02*
X14124063Y-13821150D01*
X14124063Y-13821150D02*
X14143110Y-13830674D01*
X14143110Y-13830674D02*
X14152634Y-13849722D01*
X14152634Y-13849722D02*
X14152634Y-13954484D01*
X14152634Y-13849722D02*
X14162158Y-13830674D01*
X14162158Y-13830674D02*
X14181205Y-13821150D01*
X14181205Y-13821150D02*
X14209777Y-13821150D01*
X14209777Y-13821150D02*
X14228824Y-13830674D01*
X14228824Y-13830674D02*
X14238348Y-13849722D01*
X14238348Y-13849722D02*
X14238348Y-13954484D01*
X14333586Y-13954484D02*
X14333586Y-13821150D01*
X14333586Y-13840198D02*
X14343110Y-13830674D01*
X14343110Y-13830674D02*
X14362158Y-13821150D01*
X14362158Y-13821150D02*
X14390729Y-13821150D01*
X14390729Y-13821150D02*
X14409777Y-13830674D01*
X14409777Y-13830674D02*
X14419301Y-13849722D01*
X14419301Y-13849722D02*
X14419301Y-13954484D01*
X14419301Y-13849722D02*
X14428824Y-13830674D01*
X14428824Y-13830674D02*
X14447872Y-13821150D01*
X14447872Y-13821150D02*
X14476443Y-13821150D01*
X14476443Y-13821150D02*
X14495491Y-13830674D01*
X14495491Y-13830674D02*
X14505015Y-13849722D01*
X14505015Y-13849722D02*
X14505015Y-13954484D01*
X14895491Y-13744960D02*
X14724063Y-14002103D01*
X15152634Y-13754484D02*
X15171682Y-13754484D01*
X15171682Y-13754484D02*
X15190729Y-13764008D01*
X15190729Y-13764008D02*
X15200253Y-13773531D01*
X15200253Y-13773531D02*
X15209777Y-13792579D01*
X15209777Y-13792579D02*
X15219301Y-13830674D01*
X15219301Y-13830674D02*
X15219301Y-13878293D01*
X15219301Y-13878293D02*
X15209777Y-13916388D01*
X15209777Y-13916388D02*
X15200253Y-13935436D01*
X15200253Y-13935436D02*
X15190729Y-13944960D01*
X15190729Y-13944960D02*
X15171682Y-13954484D01*
X15171682Y-13954484D02*
X15152634Y-13954484D01*
X15152634Y-13954484D02*
X15133586Y-13944960D01*
X15133586Y-13944960D02*
X15124063Y-13935436D01*
X15124063Y-13935436D02*
X15114539Y-13916388D01*
X15114539Y-13916388D02*
X15105015Y-13878293D01*
X15105015Y-13878293D02*
X15105015Y-13830674D01*
X15105015Y-13830674D02*
X15114539Y-13792579D01*
X15114539Y-13792579D02*
X15124063Y-13773531D01*
X15124063Y-13773531D02*
X15133586Y-13764008D01*
X15133586Y-13764008D02*
X15152634Y-13754484D01*
X15305015Y-13935436D02*
X15314539Y-13944960D01*
X15314539Y-13944960D02*
X15305015Y-13954484D01*
X15305015Y-13954484D02*
X15295491Y-13944960D01*
X15295491Y-13944960D02*
X15305015Y-13935436D01*
X15305015Y-13935436D02*
X15305015Y-13954484D01*
X15438348Y-13754484D02*
X15457396Y-13754484D01*
X15457396Y-13754484D02*
X15476444Y-13764008D01*
X15476444Y-13764008D02*
X15485967Y-13773531D01*
X15485967Y-13773531D02*
X15495491Y-13792579D01*
X15495491Y-13792579D02*
X15505015Y-13830674D01*
X15505015Y-13830674D02*
X15505015Y-13878293D01*
X15505015Y-13878293D02*
X15495491Y-13916388D01*
X15495491Y-13916388D02*
X15485967Y-13935436D01*
X15485967Y-13935436D02*
X15476444Y-13944960D01*
X15476444Y-13944960D02*
X15457396Y-13954484D01*
X15457396Y-13954484D02*
X15438348Y-13954484D01*
X15438348Y-13954484D02*
X15419301Y-13944960D01*
X15419301Y-13944960D02*
X15409777Y-13935436D01*
X15409777Y-13935436D02*
X15400253Y-13916388D01*
X15400253Y-13916388D02*
X15390729Y-13878293D01*
X15390729Y-13878293D02*
X15390729Y-13830674D01*
X15390729Y-13830674D02*
X15400253Y-13792579D01*
X15400253Y-13792579D02*
X15409777Y-13773531D01*
X15409777Y-13773531D02*
X15419301Y-13764008D01*
X15419301Y-13764008D02*
X15438348Y-13754484D01*
X15571682Y-13754484D02*
X15695491Y-13754484D01*
X15695491Y-13754484D02*
X15628825Y-13830674D01*
X15628825Y-13830674D02*
X15657396Y-13830674D01*
X15657396Y-13830674D02*
X15676444Y-13840198D01*
X15676444Y-13840198D02*
X15685967Y-13849722D01*
X15685967Y-13849722D02*
X15695491Y-13868769D01*
X15695491Y-13868769D02*
X15695491Y-13916388D01*
X15695491Y-13916388D02*
X15685967Y-13935436D01*
X15685967Y-13935436D02*
X15676444Y-13944960D01*
X15676444Y-13944960D02*
X15657396Y-13954484D01*
X15657396Y-13954484D02*
X15600253Y-13954484D01*
X15600253Y-13954484D02*
X15581206Y-13944960D01*
X15581206Y-13944960D02*
X15571682Y-13935436D01*
X15790729Y-13954484D02*
X15828825Y-13954484D01*
X15828825Y-13954484D02*
X15847872Y-13944960D01*
X15847872Y-13944960D02*
X15857396Y-13935436D01*
X15857396Y-13935436D02*
X15876444Y-13906865D01*
X15876444Y-13906865D02*
X15885967Y-13868769D01*
X15885967Y-13868769D02*
X15885967Y-13792579D01*
X15885967Y-13792579D02*
X15876444Y-13773531D01*
X15876444Y-13773531D02*
X15866920Y-13764008D01*
X15866920Y-13764008D02*
X15847872Y-13754484D01*
X15847872Y-13754484D02*
X15809777Y-13754484D01*
X15809777Y-13754484D02*
X15790729Y-13764008D01*
X15790729Y-13764008D02*
X15781206Y-13773531D01*
X15781206Y-13773531D02*
X15771682Y-13792579D01*
X15771682Y-13792579D02*
X15771682Y-13840198D01*
X15771682Y-13840198D02*
X15781206Y-13859246D01*
X15781206Y-13859246D02*
X15790729Y-13868769D01*
X15790729Y-13868769D02*
X15809777Y-13878293D01*
X15809777Y-13878293D02*
X15847872Y-13878293D01*
X15847872Y-13878293D02*
X15866920Y-13868769D01*
X15866920Y-13868769D02*
X15876444Y-13859246D01*
X15876444Y-13859246D02*
X15885967Y-13840198D01*
X16057396Y-13821150D02*
X16057396Y-13954484D01*
X16009777Y-13744960D02*
X15962158Y-13887817D01*
X15962158Y-13887817D02*
X16085967Y-13887817D01*
X16152634Y-13754484D02*
X16152634Y-13792579D01*
X16228825Y-13754484D02*
X16228825Y-13792579D01*
X16524063Y-14030674D02*
X16514539Y-14021150D01*
X16514539Y-14021150D02*
X16495491Y-13992579D01*
X16495491Y-13992579D02*
X16485968Y-13973531D01*
X16485968Y-13973531D02*
X16476444Y-13944960D01*
X16476444Y-13944960D02*
X16466920Y-13897341D01*
X16466920Y-13897341D02*
X16466920Y-13859246D01*
X16466920Y-13859246D02*
X16476444Y-13811627D01*
X16476444Y-13811627D02*
X16485968Y-13783055D01*
X16485968Y-13783055D02*
X16495491Y-13764008D01*
X16495491Y-13764008D02*
X16514539Y-13735436D01*
X16514539Y-13735436D02*
X16524063Y-13725912D01*
X16685968Y-13754484D02*
X16647872Y-13754484D01*
X16647872Y-13754484D02*
X16628825Y-13764008D01*
X16628825Y-13764008D02*
X16619301Y-13773531D01*
X16619301Y-13773531D02*
X16600253Y-13802103D01*
X16600253Y-13802103D02*
X16590729Y-13840198D01*
X16590729Y-13840198D02*
X16590729Y-13916388D01*
X16590729Y-13916388D02*
X16600253Y-13935436D01*
X16600253Y-13935436D02*
X16609777Y-13944960D01*
X16609777Y-13944960D02*
X16628825Y-13954484D01*
X16628825Y-13954484D02*
X16666920Y-13954484D01*
X16666920Y-13954484D02*
X16685968Y-13944960D01*
X16685968Y-13944960D02*
X16695491Y-13935436D01*
X16695491Y-13935436D02*
X16705015Y-13916388D01*
X16705015Y-13916388D02*
X16705015Y-13868769D01*
X16705015Y-13868769D02*
X16695491Y-13849722D01*
X16695491Y-13849722D02*
X16685968Y-13840198D01*
X16685968Y-13840198D02*
X16666920Y-13830674D01*
X16666920Y-13830674D02*
X16628825Y-13830674D01*
X16628825Y-13830674D02*
X16609777Y-13840198D01*
X16609777Y-13840198D02*
X16600253Y-13849722D01*
X16600253Y-13849722D02*
X16590729Y-13868769D01*
X16876444Y-13821150D02*
X16876444Y-13954484D01*
X16828825Y-13744960D02*
X16781206Y-13887817D01*
X16781206Y-13887817D02*
X16905015Y-13887817D01*
X17133587Y-13954484D02*
X17133587Y-13754484D01*
X17219301Y-13954484D02*
X17219301Y-13849722D01*
X17219301Y-13849722D02*
X17209777Y-13830674D01*
X17209777Y-13830674D02*
X17190730Y-13821150D01*
X17190730Y-13821150D02*
X17162158Y-13821150D01*
X17162158Y-13821150D02*
X17143111Y-13830674D01*
X17143111Y-13830674D02*
X17133587Y-13840198D01*
X17343111Y-13954484D02*
X17324063Y-13944960D01*
X17324063Y-13944960D02*
X17314539Y-13935436D01*
X17314539Y-13935436D02*
X17305015Y-13916388D01*
X17305015Y-13916388D02*
X17305015Y-13859246D01*
X17305015Y-13859246D02*
X17314539Y-13840198D01*
X17314539Y-13840198D02*
X17324063Y-13830674D01*
X17324063Y-13830674D02*
X17343111Y-13821150D01*
X17343111Y-13821150D02*
X17371682Y-13821150D01*
X17371682Y-13821150D02*
X17390730Y-13830674D01*
X17390730Y-13830674D02*
X17400253Y-13840198D01*
X17400253Y-13840198D02*
X17409777Y-13859246D01*
X17409777Y-13859246D02*
X17409777Y-13916388D01*
X17409777Y-13916388D02*
X17400253Y-13935436D01*
X17400253Y-13935436D02*
X17390730Y-13944960D01*
X17390730Y-13944960D02*
X17371682Y-13954484D01*
X17371682Y-13954484D02*
X17343111Y-13954484D01*
X17524063Y-13954484D02*
X17505015Y-13944960D01*
X17505015Y-13944960D02*
X17495492Y-13925912D01*
X17495492Y-13925912D02*
X17495492Y-13754484D01*
X17676444Y-13944960D02*
X17657396Y-13954484D01*
X17657396Y-13954484D02*
X17619301Y-13954484D01*
X17619301Y-13954484D02*
X17600253Y-13944960D01*
X17600253Y-13944960D02*
X17590730Y-13925912D01*
X17590730Y-13925912D02*
X17590730Y-13849722D01*
X17590730Y-13849722D02*
X17600253Y-13830674D01*
X17600253Y-13830674D02*
X17619301Y-13821150D01*
X17619301Y-13821150D02*
X17657396Y-13821150D01*
X17657396Y-13821150D02*
X17676444Y-13830674D01*
X17676444Y-13830674D02*
X17685968Y-13849722D01*
X17685968Y-13849722D02*
X17685968Y-13868769D01*
X17685968Y-13868769D02*
X17590730Y-13887817D01*
X17762158Y-13944960D02*
X17781206Y-13954484D01*
X17781206Y-13954484D02*
X17819301Y-13954484D01*
X17819301Y-13954484D02*
X17838349Y-13944960D01*
X17838349Y-13944960D02*
X17847873Y-13925912D01*
X17847873Y-13925912D02*
X17847873Y-13916388D01*
X17847873Y-13916388D02*
X17838349Y-13897341D01*
X17838349Y-13897341D02*
X17819301Y-13887817D01*
X17819301Y-13887817D02*
X17790730Y-13887817D01*
X17790730Y-13887817D02*
X17771682Y-13878293D01*
X17771682Y-13878293D02*
X17762158Y-13859246D01*
X17762158Y-13859246D02*
X17762158Y-13849722D01*
X17762158Y-13849722D02*
X17771682Y-13830674D01*
X17771682Y-13830674D02*
X17790730Y-13821150D01*
X17790730Y-13821150D02*
X17819301Y-13821150D01*
X17819301Y-13821150D02*
X17838349Y-13830674D01*
X17914539Y-14030674D02*
X17924063Y-14021150D01*
X17924063Y-14021150D02*
X17943111Y-13992579D01*
X17943111Y-13992579D02*
X17952634Y-13973531D01*
X17952634Y-13973531D02*
X17962158Y-13944960D01*
X17962158Y-13944960D02*
X17971682Y-13897341D01*
X17971682Y-13897341D02*
X17971682Y-13859246D01*
X17971682Y-13859246D02*
X17962158Y-13811627D01*
X17962158Y-13811627D02*
X17952634Y-13783055D01*
X17952634Y-13783055D02*
X17943111Y-13764008D01*
X17943111Y-13764008D02*
X17924063Y-13735436D01*
X17924063Y-13735436D02*
X17914539Y-13725912D01*
D13*
X12889000Y-14067000D02*
X12889000Y-14187000D01*
X12829000Y-14127000D02*
X12949000Y-14127000D01*
D11*
X13314539Y-14218484D02*
X13200253Y-14218484D01*
X13257396Y-14218484D02*
X13257396Y-14018484D01*
X13257396Y-14018484D02*
X13238348Y-14047055D01*
X13238348Y-14047055D02*
X13219301Y-14066103D01*
X13219301Y-14066103D02*
X13200253Y-14075627D01*
X13400253Y-14199436D02*
X13409777Y-14208960D01*
X13409777Y-14208960D02*
X13400253Y-14218484D01*
X13400253Y-14218484D02*
X13390729Y-14208960D01*
X13390729Y-14208960D02*
X13400253Y-14199436D01*
X13400253Y-14199436D02*
X13400253Y-14218484D01*
X13485967Y-14037531D02*
X13495491Y-14028008D01*
X13495491Y-14028008D02*
X13514539Y-14018484D01*
X13514539Y-14018484D02*
X13562158Y-14018484D01*
X13562158Y-14018484D02*
X13581205Y-14028008D01*
X13581205Y-14028008D02*
X13590729Y-14037531D01*
X13590729Y-14037531D02*
X13600253Y-14056579D01*
X13600253Y-14056579D02*
X13600253Y-14075627D01*
X13600253Y-14075627D02*
X13590729Y-14104198D01*
X13590729Y-14104198D02*
X13476443Y-14218484D01*
X13476443Y-14218484D02*
X13600253Y-14218484D01*
X13724062Y-14018484D02*
X13743110Y-14018484D01*
X13743110Y-14018484D02*
X13762158Y-14028008D01*
X13762158Y-14028008D02*
X13771682Y-14037531D01*
X13771682Y-14037531D02*
X13781205Y-14056579D01*
X13781205Y-14056579D02*
X13790729Y-14094674D01*
X13790729Y-14094674D02*
X13790729Y-14142293D01*
X13790729Y-14142293D02*
X13781205Y-14180388D01*
X13781205Y-14180388D02*
X13771682Y-14199436D01*
X13771682Y-14199436D02*
X13762158Y-14208960D01*
X13762158Y-14208960D02*
X13743110Y-14218484D01*
X13743110Y-14218484D02*
X13724062Y-14218484D01*
X13724062Y-14218484D02*
X13705015Y-14208960D01*
X13705015Y-14208960D02*
X13695491Y-14199436D01*
X13695491Y-14199436D02*
X13685967Y-14180388D01*
X13685967Y-14180388D02*
X13676443Y-14142293D01*
X13676443Y-14142293D02*
X13676443Y-14094674D01*
X13676443Y-14094674D02*
X13685967Y-14056579D01*
X13685967Y-14056579D02*
X13695491Y-14037531D01*
X13695491Y-14037531D02*
X13705015Y-14028008D01*
X13705015Y-14028008D02*
X13724062Y-14018484D01*
X13914539Y-14018484D02*
X13933586Y-14018484D01*
X13933586Y-14018484D02*
X13952634Y-14028008D01*
X13952634Y-14028008D02*
X13962158Y-14037531D01*
X13962158Y-14037531D02*
X13971682Y-14056579D01*
X13971682Y-14056579D02*
X13981205Y-14094674D01*
X13981205Y-14094674D02*
X13981205Y-14142293D01*
X13981205Y-14142293D02*
X13971682Y-14180388D01*
X13971682Y-14180388D02*
X13962158Y-14199436D01*
X13962158Y-14199436D02*
X13952634Y-14208960D01*
X13952634Y-14208960D02*
X13933586Y-14218484D01*
X13933586Y-14218484D02*
X13914539Y-14218484D01*
X13914539Y-14218484D02*
X13895491Y-14208960D01*
X13895491Y-14208960D02*
X13885967Y-14199436D01*
X13885967Y-14199436D02*
X13876443Y-14180388D01*
X13876443Y-14180388D02*
X13866920Y-14142293D01*
X13866920Y-14142293D02*
X13866920Y-14094674D01*
X13866920Y-14094674D02*
X13876443Y-14056579D01*
X13876443Y-14056579D02*
X13885967Y-14037531D01*
X13885967Y-14037531D02*
X13895491Y-14028008D01*
X13895491Y-14028008D02*
X13914539Y-14018484D01*
X14066920Y-14218484D02*
X14066920Y-14085150D01*
X14066920Y-14104198D02*
X14076443Y-14094674D01*
X14076443Y-14094674D02*
X14095491Y-14085150D01*
X14095491Y-14085150D02*
X14124063Y-14085150D01*
X14124063Y-14085150D02*
X14143110Y-14094674D01*
X14143110Y-14094674D02*
X14152634Y-14113722D01*
X14152634Y-14113722D02*
X14152634Y-14218484D01*
X14152634Y-14113722D02*
X14162158Y-14094674D01*
X14162158Y-14094674D02*
X14181205Y-14085150D01*
X14181205Y-14085150D02*
X14209777Y-14085150D01*
X14209777Y-14085150D02*
X14228824Y-14094674D01*
X14228824Y-14094674D02*
X14238348Y-14113722D01*
X14238348Y-14113722D02*
X14238348Y-14218484D01*
X14333586Y-14218484D02*
X14333586Y-14085150D01*
X14333586Y-14104198D02*
X14343110Y-14094674D01*
X14343110Y-14094674D02*
X14362158Y-14085150D01*
X14362158Y-14085150D02*
X14390729Y-14085150D01*
X14390729Y-14085150D02*
X14409777Y-14094674D01*
X14409777Y-14094674D02*
X14419301Y-14113722D01*
X14419301Y-14113722D02*
X14419301Y-14218484D01*
X14419301Y-14113722D02*
X14428824Y-14094674D01*
X14428824Y-14094674D02*
X14447872Y-14085150D01*
X14447872Y-14085150D02*
X14476443Y-14085150D01*
X14476443Y-14085150D02*
X14495491Y-14094674D01*
X14495491Y-14094674D02*
X14505015Y-14113722D01*
X14505015Y-14113722D02*
X14505015Y-14218484D01*
X14895491Y-14008960D02*
X14724063Y-14266103D01*
X15152634Y-14018484D02*
X15171682Y-14018484D01*
X15171682Y-14018484D02*
X15190729Y-14028008D01*
X15190729Y-14028008D02*
X15200253Y-14037531D01*
X15200253Y-14037531D02*
X15209777Y-14056579D01*
X15209777Y-14056579D02*
X15219301Y-14094674D01*
X15219301Y-14094674D02*
X15219301Y-14142293D01*
X15219301Y-14142293D02*
X15209777Y-14180388D01*
X15209777Y-14180388D02*
X15200253Y-14199436D01*
X15200253Y-14199436D02*
X15190729Y-14208960D01*
X15190729Y-14208960D02*
X15171682Y-14218484D01*
X15171682Y-14218484D02*
X15152634Y-14218484D01*
X15152634Y-14218484D02*
X15133586Y-14208960D01*
X15133586Y-14208960D02*
X15124063Y-14199436D01*
X15124063Y-14199436D02*
X15114539Y-14180388D01*
X15114539Y-14180388D02*
X15105015Y-14142293D01*
X15105015Y-14142293D02*
X15105015Y-14094674D01*
X15105015Y-14094674D02*
X15114539Y-14056579D01*
X15114539Y-14056579D02*
X15124063Y-14037531D01*
X15124063Y-14037531D02*
X15133586Y-14028008D01*
X15133586Y-14028008D02*
X15152634Y-14018484D01*
X15305015Y-14199436D02*
X15314539Y-14208960D01*
X15314539Y-14208960D02*
X15305015Y-14218484D01*
X15305015Y-14218484D02*
X15295491Y-14208960D01*
X15295491Y-14208960D02*
X15305015Y-14199436D01*
X15305015Y-14199436D02*
X15305015Y-14218484D01*
X15438348Y-14018484D02*
X15457396Y-14018484D01*
X15457396Y-14018484D02*
X15476444Y-14028008D01*
X15476444Y-14028008D02*
X15485967Y-14037531D01*
X15485967Y-14037531D02*
X15495491Y-14056579D01*
X15495491Y-14056579D02*
X15505015Y-14094674D01*
X15505015Y-14094674D02*
X15505015Y-14142293D01*
X15505015Y-14142293D02*
X15495491Y-14180388D01*
X15495491Y-14180388D02*
X15485967Y-14199436D01*
X15485967Y-14199436D02*
X15476444Y-14208960D01*
X15476444Y-14208960D02*
X15457396Y-14218484D01*
X15457396Y-14218484D02*
X15438348Y-14218484D01*
X15438348Y-14218484D02*
X15419301Y-14208960D01*
X15419301Y-14208960D02*
X15409777Y-14199436D01*
X15409777Y-14199436D02*
X15400253Y-14180388D01*
X15400253Y-14180388D02*
X15390729Y-14142293D01*
X15390729Y-14142293D02*
X15390729Y-14094674D01*
X15390729Y-14094674D02*
X15400253Y-14056579D01*
X15400253Y-14056579D02*
X15409777Y-14037531D01*
X15409777Y-14037531D02*
X15419301Y-14028008D01*
X15419301Y-14028008D02*
X15438348Y-14018484D01*
X15676444Y-14085150D02*
X15676444Y-14218484D01*
X15628825Y-14008960D02*
X15581206Y-14151817D01*
X15581206Y-14151817D02*
X15705015Y-14151817D01*
X15762158Y-14018484D02*
X15895491Y-14018484D01*
X15895491Y-14018484D02*
X15809777Y-14218484D01*
X15962158Y-14037531D02*
X15971682Y-14028008D01*
X15971682Y-14028008D02*
X15990729Y-14018484D01*
X15990729Y-14018484D02*
X16038348Y-14018484D01*
X16038348Y-14018484D02*
X16057396Y-14028008D01*
X16057396Y-14028008D02*
X16066920Y-14037531D01*
X16066920Y-14037531D02*
X16076444Y-14056579D01*
X16076444Y-14056579D02*
X16076444Y-14075627D01*
X16076444Y-14075627D02*
X16066920Y-14104198D01*
X16066920Y-14104198D02*
X15952634Y-14218484D01*
X15952634Y-14218484D02*
X16076444Y-14218484D01*
X16152634Y-14018484D02*
X16152634Y-14056579D01*
X16228825Y-14018484D02*
X16228825Y-14056579D01*
X16524063Y-14294674D02*
X16514539Y-14285150D01*
X16514539Y-14285150D02*
X16495491Y-14256579D01*
X16495491Y-14256579D02*
X16485968Y-14237531D01*
X16485968Y-14237531D02*
X16476444Y-14208960D01*
X16476444Y-14208960D02*
X16466920Y-14161341D01*
X16466920Y-14161341D02*
X16466920Y-14123246D01*
X16466920Y-14123246D02*
X16476444Y-14075627D01*
X16476444Y-14075627D02*
X16485968Y-14047055D01*
X16485968Y-14047055D02*
X16495491Y-14028008D01*
X16495491Y-14028008D02*
X16514539Y-13999436D01*
X16514539Y-13999436D02*
X16524063Y-13989912D01*
X16628825Y-14104198D02*
X16609777Y-14094674D01*
X16609777Y-14094674D02*
X16600253Y-14085150D01*
X16600253Y-14085150D02*
X16590729Y-14066103D01*
X16590729Y-14066103D02*
X16590729Y-14056579D01*
X16590729Y-14056579D02*
X16600253Y-14037531D01*
X16600253Y-14037531D02*
X16609777Y-14028008D01*
X16609777Y-14028008D02*
X16628825Y-14018484D01*
X16628825Y-14018484D02*
X16666920Y-14018484D01*
X16666920Y-14018484D02*
X16685968Y-14028008D01*
X16685968Y-14028008D02*
X16695491Y-14037531D01*
X16695491Y-14037531D02*
X16705015Y-14056579D01*
X16705015Y-14056579D02*
X16705015Y-14066103D01*
X16705015Y-14066103D02*
X16695491Y-14085150D01*
X16695491Y-14085150D02*
X16685968Y-14094674D01*
X16685968Y-14094674D02*
X16666920Y-14104198D01*
X16666920Y-14104198D02*
X16628825Y-14104198D01*
X16628825Y-14104198D02*
X16609777Y-14113722D01*
X16609777Y-14113722D02*
X16600253Y-14123246D01*
X16600253Y-14123246D02*
X16590729Y-14142293D01*
X16590729Y-14142293D02*
X16590729Y-14180388D01*
X16590729Y-14180388D02*
X16600253Y-14199436D01*
X16600253Y-14199436D02*
X16609777Y-14208960D01*
X16609777Y-14208960D02*
X16628825Y-14218484D01*
X16628825Y-14218484D02*
X16666920Y-14218484D01*
X16666920Y-14218484D02*
X16685968Y-14208960D01*
X16685968Y-14208960D02*
X16695491Y-14199436D01*
X16695491Y-14199436D02*
X16705015Y-14180388D01*
X16705015Y-14180388D02*
X16705015Y-14142293D01*
X16705015Y-14142293D02*
X16695491Y-14123246D01*
X16695491Y-14123246D02*
X16685968Y-14113722D01*
X16685968Y-14113722D02*
X16666920Y-14104198D01*
X16943111Y-14218484D02*
X16943111Y-14018484D01*
X17028825Y-14218484D02*
X17028825Y-14113722D01*
X17028825Y-14113722D02*
X17019301Y-14094674D01*
X17019301Y-14094674D02*
X17000253Y-14085150D01*
X17000253Y-14085150D02*
X16971682Y-14085150D01*
X16971682Y-14085150D02*
X16952634Y-14094674D01*
X16952634Y-14094674D02*
X16943111Y-14104198D01*
X17152634Y-14218484D02*
X17133587Y-14208960D01*
X17133587Y-14208960D02*
X17124063Y-14199436D01*
X17124063Y-14199436D02*
X17114539Y-14180388D01*
X17114539Y-14180388D02*
X17114539Y-14123246D01*
X17114539Y-14123246D02*
X17124063Y-14104198D01*
X17124063Y-14104198D02*
X17133587Y-14094674D01*
X17133587Y-14094674D02*
X17152634Y-14085150D01*
X17152634Y-14085150D02*
X17181206Y-14085150D01*
X17181206Y-14085150D02*
X17200253Y-14094674D01*
X17200253Y-14094674D02*
X17209777Y-14104198D01*
X17209777Y-14104198D02*
X17219301Y-14123246D01*
X17219301Y-14123246D02*
X17219301Y-14180388D01*
X17219301Y-14180388D02*
X17209777Y-14199436D01*
X17209777Y-14199436D02*
X17200253Y-14208960D01*
X17200253Y-14208960D02*
X17181206Y-14218484D01*
X17181206Y-14218484D02*
X17152634Y-14218484D01*
X17333587Y-14218484D02*
X17314539Y-14208960D01*
X17314539Y-14208960D02*
X17305015Y-14189912D01*
X17305015Y-14189912D02*
X17305015Y-14018484D01*
X17485968Y-14208960D02*
X17466920Y-14218484D01*
X17466920Y-14218484D02*
X17428825Y-14218484D01*
X17428825Y-14218484D02*
X17409777Y-14208960D01*
X17409777Y-14208960D02*
X17400253Y-14189912D01*
X17400253Y-14189912D02*
X17400253Y-14113722D01*
X17400253Y-14113722D02*
X17409777Y-14094674D01*
X17409777Y-14094674D02*
X17428825Y-14085150D01*
X17428825Y-14085150D02*
X17466920Y-14085150D01*
X17466920Y-14085150D02*
X17485968Y-14094674D01*
X17485968Y-14094674D02*
X17495492Y-14113722D01*
X17495492Y-14113722D02*
X17495492Y-14132769D01*
X17495492Y-14132769D02*
X17400253Y-14151817D01*
X17571682Y-14208960D02*
X17590730Y-14218484D01*
X17590730Y-14218484D02*
X17628825Y-14218484D01*
X17628825Y-14218484D02*
X17647873Y-14208960D01*
X17647873Y-14208960D02*
X17657396Y-14189912D01*
X17657396Y-14189912D02*
X17657396Y-14180388D01*
X17657396Y-14180388D02*
X17647873Y-14161341D01*
X17647873Y-14161341D02*
X17628825Y-14151817D01*
X17628825Y-14151817D02*
X17600253Y-14151817D01*
X17600253Y-14151817D02*
X17581206Y-14142293D01*
X17581206Y-14142293D02*
X17571682Y-14123246D01*
X17571682Y-14123246D02*
X17571682Y-14113722D01*
X17571682Y-14113722D02*
X17581206Y-14094674D01*
X17581206Y-14094674D02*
X17600253Y-14085150D01*
X17600253Y-14085150D02*
X17628825Y-14085150D01*
X17628825Y-14085150D02*
X17647873Y-14094674D01*
X17724063Y-14294674D02*
X17733587Y-14285150D01*
X17733587Y-14285150D02*
X17752634Y-14256579D01*
X17752634Y-14256579D02*
X17762158Y-14237531D01*
X17762158Y-14237531D02*
X17771682Y-14208960D01*
X17771682Y-14208960D02*
X17781206Y-14161341D01*
X17781206Y-14161341D02*
X17781206Y-14123246D01*
X17781206Y-14123246D02*
X17771682Y-14075627D01*
X17771682Y-14075627D02*
X17762158Y-14047055D01*
X17762158Y-14047055D02*
X17752634Y-14028008D01*
X17752634Y-14028008D02*
X17733587Y-13999436D01*
X17733587Y-13999436D02*
X17724063Y-13989912D01*
M02*
