%TF.GenerationSoftware,KiCad,Pcbnew,7.0.7-2.fc38*%
%TF.CreationDate,2024-02-23T01:30:41-08:00*%
%TF.ProjectId,SparrowBreadboardAdapter,53706172-726f-4774-9272-656164626f61,rev?*%
%TF.SameCoordinates,Original*%
%TF.FileFunction,Copper,L1,Top*%
%TF.FilePolarity,Positive*%
%FSLAX46Y46*%
G04 Gerber Fmt 4.6, Leading zero omitted, Abs format (unit mm)*
G04 Created by KiCad (PCBNEW 7.0.7-2.fc38) date 2024-02-23 01:30:41*
%MOMM*%
%LPD*%
G01*
G04 APERTURE LIST*
G04 Aperture macros list*
%AMRoundRect*
0 Rectangle with rounded corners*
0 $1 Rounding radius*
0 $2 $3 $4 $5 $6 $7 $8 $9 X,Y pos of 4 corners*
0 Add a 4 corners polygon primitive as box body*
4,1,4,$2,$3,$4,$5,$6,$7,$8,$9,$2,$3,0*
0 Add four circle primitives for the rounded corners*
1,1,$1+$1,$2,$3*
1,1,$1+$1,$4,$5*
1,1,$1+$1,$6,$7*
1,1,$1+$1,$8,$9*
0 Add four rect primitives between the rounded corners*
20,1,$1+$1,$2,$3,$4,$5,0*
20,1,$1+$1,$4,$5,$6,$7,0*
20,1,$1+$1,$6,$7,$8,$9,0*
20,1,$1+$1,$8,$9,$2,$3,0*%
G04 Aperture macros list end*
%TA.AperFunction,ComponentPad*%
%ADD10C,2.000000*%
%TD*%
%TA.AperFunction,ComponentPad*%
%ADD11O,1.800000X3.600000*%
%TD*%
%TA.AperFunction,ComponentPad*%
%ADD12RoundRect,0.250000X0.650000X1.550000X-0.650000X1.550000X-0.650000X-1.550000X0.650000X-1.550000X0*%
%TD*%
%TA.AperFunction,ComponentPad*%
%ADD13R,1.700000X1.700000*%
%TD*%
%TA.AperFunction,ComponentPad*%
%ADD14O,1.700000X1.700000*%
%TD*%
%TA.AperFunction,ViaPad*%
%ADD15C,0.800000*%
%TD*%
%TA.AperFunction,Conductor*%
%ADD16C,0.400000*%
%TD*%
%TA.AperFunction,Conductor*%
%ADD17C,2.000000*%
%TD*%
G04 APERTURE END LIST*
D10*
%TO.P,J4,1,1*%
%TO.N,/SWDIO*%
X150639980Y-53200000D03*
%TO.P,J4,2,2*%
%TO.N,GND*%
X153179985Y-53200000D03*
%TO.P,J4,3,3*%
%TO.N,/SWCLK*%
X155719990Y-53200000D03*
%TO.P,J4,4,4*%
%TO.N,/~{RESET}*%
X158259995Y-53200000D03*
%TO.P,J4,5,5*%
%TO.N,+3V3*%
X160800000Y-53200000D03*
%TD*%
D11*
%TO.P,J3,3,Pin_3*%
%TO.N,GND*%
X135180000Y-55400000D03*
%TO.P,J3,2,Pin_2*%
%TO.N,/CAN+*%
X138990000Y-55400000D03*
D12*
%TO.P,J3,1,Pin_1*%
%TO.N,/CAN-*%
X142800000Y-55400000D03*
%TD*%
D13*
%TO.P,U1,1,CANL*%
%TO.N,/CAN-*%
X135790000Y-63500000D03*
D14*
%TO.P,U1,2,GND*%
%TO.N,GND*%
X133250000Y-63500000D03*
%TO.P,U1,3,CANH*%
%TO.N,/CAN+*%
X135790000Y-66040000D03*
%TO.P,U1,4,PA0*%
%TO.N,/PA0*%
X133250000Y-66040000D03*
%TO.P,U1,5,GND*%
%TO.N,GND*%
X135790000Y-68580000D03*
%TO.P,U1,6,~{RESET}*%
%TO.N,/~{RESET}*%
X133250000Y-68580000D03*
%TO.P,U1,7,SWDIO*%
%TO.N,/SWDIO*%
X135790000Y-71120000D03*
%TO.P,U1,8,SWCLK*%
%TO.N,/SWCLK*%
X133250000Y-71120000D03*
%TO.P,U1,9,PA15*%
%TO.N,/PA15*%
X135790000Y-73660000D03*
%TO.P,U1,10,PB3*%
%TO.N,/PB3*%
X133250000Y-73660000D03*
%TO.P,U1,11,PB4*%
%TO.N,/PB4*%
X135790000Y-76200000D03*
%TO.P,U1,12,PB5*%
%TO.N,/PB5*%
X133250000Y-76200000D03*
%TO.P,U1,13,PB6*%
%TO.N,/PB6*%
X135790000Y-78740000D03*
%TO.P,U1,14,PB7*%
%TO.N,/PB7*%
X133250000Y-78740000D03*
%TO.P,U1,15,PD0*%
%TO.N,/PD0*%
X135790000Y-81280000D03*
%TO.P,U1,16,PD1*%
%TO.N,/PD1*%
X133250000Y-81280000D03*
D13*
%TO.P,U1,17,PA8*%
%TO.N,/PA8*%
X161190000Y-63500000D03*
D14*
%TO.P,U1,18,3V_OUT*%
%TO.N,+3V3*%
X158650000Y-63500000D03*
%TO.P,U1,19,PA9*%
%TO.N,/PA9*%
X161190000Y-66040000D03*
%TO.P,U1,20,PA10*%
%TO.N,/PA10*%
X158650000Y-66040000D03*
%TO.P,U1,21,PB1*%
%TO.N,/PB1*%
X161190000Y-68580000D03*
%TO.P,U1,22,PB2*%
%TO.N,/PB2*%
X158650000Y-68580000D03*
%TO.P,U1,23,PA7*%
%TO.N,/PA7*%
X161190000Y-71120000D03*
%TO.P,U1,24,PB0*%
%TO.N,/PB0*%
X158650000Y-71120000D03*
%TO.P,U1,25,PA2*%
%TO.N,/PA2*%
X161190000Y-73660000D03*
%TO.P,U1,26,PA1*%
%TO.N,/PA1*%
X158650000Y-73660000D03*
%TO.P,U1,27,PA4*%
%TO.N,/PA4*%
X161190000Y-76200000D03*
%TO.P,U1,28,PA3*%
%TO.N,/PA3*%
X158650000Y-76200000D03*
%TO.P,U1,29,PA6*%
%TO.N,/PA6*%
X161190000Y-78740000D03*
%TO.P,U1,30,PA5*%
%TO.N,/PA5*%
X158650000Y-78740000D03*
%TO.P,U1,31,VDC*%
%TO.N,/VDC*%
X161190000Y-81280000D03*
%TO.P,U1,32,VDC*%
X158650000Y-81280000D03*
%TD*%
D13*
%TO.P,J2,1,Pin_1*%
%TO.N,/VDC*%
X154940000Y-88900000D03*
D14*
%TO.P,J2,2,Pin_2*%
X154940000Y-91440000D03*
%TO.P,J2,3,Pin_3*%
%TO.N,/PA5*%
X154940000Y-93980000D03*
%TO.P,J2,4,Pin_4*%
%TO.N,/PA3*%
X154940000Y-96520000D03*
%TO.P,J2,5,Pin_5*%
%TO.N,/PA1*%
X154940000Y-99060000D03*
%TO.P,J2,6,Pin_6*%
%TO.N,/PB0*%
X154940000Y-101600000D03*
%TO.P,J2,7,Pin_7*%
%TO.N,/PB2*%
X154940000Y-104140000D03*
%TO.P,J2,8,Pin_8*%
%TO.N,/PA10*%
X154940000Y-106680000D03*
%TO.P,J2,9,Pin_9*%
%TO.N,/PA8*%
X154940000Y-109220000D03*
%TO.P,J2,10,Pin_10*%
%TO.N,/PA6*%
X154940000Y-111760000D03*
%TO.P,J2,11,Pin_11*%
%TO.N,/PA4*%
X154940000Y-114300000D03*
%TO.P,J2,12,Pin_12*%
%TO.N,/PA2*%
X154940000Y-116840000D03*
%TO.P,J2,13,Pin_13*%
%TO.N,/PA7*%
X154940000Y-119380000D03*
%TO.P,J2,14,Pin_14*%
%TO.N,/PB1*%
X154940000Y-121920000D03*
%TO.P,J2,15,Pin_15*%
%TO.N,/PA9*%
X154940000Y-124460000D03*
%TO.P,J2,16,Pin_16*%
%TO.N,GND*%
X154940000Y-127000000D03*
%TD*%
D13*
%TO.P,J1,1,Pin_1*%
%TO.N,/PD0*%
X139700000Y-88900000D03*
D14*
%TO.P,J1,2,Pin_2*%
%TO.N,/PB6*%
X139700000Y-91440000D03*
%TO.P,J1,3,Pin_3*%
%TO.N,/PB4*%
X139700000Y-93980000D03*
%TO.P,J1,4,Pin_4*%
%TO.N,/PA15*%
X139700000Y-96520000D03*
%TO.P,J1,5,Pin_5*%
%TO.N,GND*%
X139700000Y-99060000D03*
%TO.P,J1,6,Pin_6*%
%TO.N,/CAN+*%
X139700000Y-101600000D03*
%TO.P,J1,7,Pin_7*%
%TO.N,/CAN-*%
X139700000Y-104140000D03*
%TO.P,J1,8,Pin_8*%
%TO.N,/PD1*%
X139700000Y-106680000D03*
%TO.P,J1,9,Pin_9*%
%TO.N,/PB7*%
X139700000Y-109220000D03*
%TO.P,J1,10,Pin_10*%
%TO.N,/PB5*%
X139700000Y-111760000D03*
%TO.P,J1,11,Pin_11*%
%TO.N,/PB3*%
X139700000Y-114300000D03*
%TO.P,J1,12,Pin_12*%
%TO.N,GND*%
X139700000Y-116840000D03*
%TO.P,J1,13,Pin_13*%
%TO.N,/~{RESET}*%
X139700000Y-119380000D03*
%TO.P,J1,14,Pin_14*%
%TO.N,/PA0*%
X139700000Y-121920000D03*
%TO.P,J1,15,Pin_15*%
%TO.N,+3V3*%
X139700000Y-124460000D03*
%TO.P,J1,16,Pin_16*%
%TO.N,GND*%
X139700000Y-127000000D03*
%TD*%
D15*
%TO.N,GND*%
X135500000Y-49500000D03*
X133500000Y-49500000D03*
X131500000Y-49500000D03*
X148400000Y-122200000D03*
X148400000Y-121200000D03*
X135000000Y-83800000D03*
X133800000Y-83800000D03*
X132600000Y-83800000D03*
X160200000Y-83800000D03*
X161200000Y-83800000D03*
X162200000Y-83800000D03*
X151200000Y-63000000D03*
X152400000Y-63000000D03*
X152400000Y-61800000D03*
X151200000Y-61800000D03*
X139600000Y-67200000D03*
X140800000Y-68400000D03*
X140800000Y-67200000D03*
X142000000Y-67200000D03*
X142000000Y-68400000D03*
X142000000Y-69600000D03*
%TD*%
D16*
%TO.N,/CAN+*%
X141100000Y-64500000D02*
G75*
G03*
X140800000Y-64200000I-300000J0D01*
G01*
X144000000Y-65000000D02*
X143200000Y-64200000D01*
X142300000Y-64500000D02*
G75*
G03*
X142000000Y-64200000I-300000J0D01*
G01*
X142750000Y-75200000D02*
X144000000Y-73950000D01*
X137160000Y-66040000D02*
X135790000Y-66040000D01*
X141100034Y-64729766D02*
G75*
G03*
X141400000Y-65029766I299966J-34D01*
G01*
X142600000Y-65029800D02*
G75*
G03*
X142900000Y-64729766I0J300000D01*
G01*
X143200000Y-64200000D02*
G75*
G03*
X142900000Y-64500000I0J-300000D01*
G01*
X144000000Y-65800000D02*
X144000000Y-65150000D01*
X141400000Y-65029800D02*
G75*
G03*
X141700000Y-64729766I0J300000D01*
G01*
X142000000Y-64200000D02*
G75*
G03*
X141700000Y-64500000I0J-300000D01*
G01*
X143700000Y-66100000D02*
G75*
G03*
X144000000Y-65800000I0J300000D01*
G01*
X143470234Y-66100000D02*
X143700000Y-66100000D01*
X143470234Y-66100034D02*
G75*
G03*
X143170234Y-66400000I-34J-299966D01*
G01*
X142300034Y-64729766D02*
G75*
G03*
X142600000Y-65029766I299966J-34D01*
G01*
X142750000Y-98550000D02*
X142750000Y-75200000D01*
X141700000Y-64500000D02*
X141700000Y-64729766D01*
X143170200Y-66400000D02*
G75*
G03*
X143470234Y-66700000I300000J0D01*
G01*
X144000000Y-65150000D02*
X144000000Y-65000000D01*
X139700000Y-101600000D02*
X142750000Y-98550000D01*
X144000000Y-67000000D02*
G75*
G03*
X143700000Y-66700000I-300000J0D01*
G01*
X144000000Y-73950000D02*
X144000000Y-67000000D01*
X139000000Y-64200000D02*
X137160000Y-66040000D01*
X143700000Y-66700000D02*
X143470234Y-66700000D01*
X142900000Y-64500000D02*
X142900000Y-64729766D01*
X142300000Y-64729766D02*
X142300000Y-64500000D01*
X141100000Y-64729766D02*
X141100000Y-64500000D01*
X140800000Y-64200000D02*
X140177721Y-64200000D01*
X140177721Y-64200000D02*
X139000000Y-64200000D01*
%TO.N,/CAN-*%
X143700000Y-63500000D02*
X144800000Y-64600000D01*
X135790000Y-63500000D02*
X143700000Y-63500000D01*
X143350000Y-100490000D02*
X143350000Y-75800000D01*
X144800000Y-64600000D02*
X144800000Y-74350000D01*
X144800000Y-74350000D02*
X143350000Y-75800000D01*
%TO.N,/SWCLK*%
X133250000Y-71120000D02*
X132047919Y-71120000D01*
X132000000Y-51500000D02*
X154019990Y-51500000D01*
X132047919Y-71120000D02*
X131000000Y-70072081D01*
X131000000Y-70072081D02*
X131000000Y-52500000D01*
X131000000Y-52500000D02*
X132000000Y-51500000D01*
X154019990Y-51500000D02*
X155719990Y-53200000D01*
%TO.N,/SWDIO*%
X150639980Y-53200000D02*
X149539980Y-52100000D01*
X131600000Y-68697767D02*
X132732233Y-69830000D01*
X134500000Y-69830000D02*
X135790000Y-71120000D01*
X149539980Y-52100000D02*
X133100000Y-52100000D01*
X133100000Y-52100000D02*
X131600000Y-53600000D01*
X131600000Y-53600000D02*
X131600000Y-68697767D01*
X132732233Y-69830000D02*
X134500000Y-69830000D01*
%TO.N,/CAN-*%
X138141111Y-60613907D02*
X138075736Y-60548532D01*
X137161804Y-60058864D02*
X137161803Y-60058864D01*
X138565375Y-60613906D02*
X138565375Y-60613907D01*
X138075736Y-60548532D02*
X137586068Y-60058864D01*
X138499999Y-60124266D02*
X138565375Y-60189642D01*
X137227203Y-60972794D02*
X137227204Y-60972793D01*
X138500000Y-60124266D02*
X138499999Y-60124266D01*
X142800000Y-55400000D02*
X138500000Y-59700000D01*
X137161807Y-60058868D02*
G75*
G03*
X137161803Y-60483128I212093J-212132D01*
G01*
X137586067Y-60058865D02*
G75*
G03*
X137161805Y-60058865I-212131J-212131D01*
G01*
X137227241Y-60972832D02*
G75*
G03*
X137227203Y-60548530I-212141J212132D01*
G01*
X138141112Y-60613906D02*
G75*
G03*
X138565374Y-60613906I212131J212131D01*
G01*
X138565400Y-60613931D02*
G75*
G03*
X138565374Y-60189643I-212200J212131D01*
G01*
X138499967Y-59699967D02*
G75*
G03*
X138500000Y-60124266I212133J-212133D01*
G01*
X135790000Y-62410000D02*
X135790000Y-63500000D01*
X137161803Y-60483128D02*
X137227204Y-60548529D01*
X137227204Y-60972793D02*
X135790000Y-62410000D01*
%TO.N,/CAN+*%
X135790000Y-66040000D02*
X134540000Y-64790000D01*
X134540000Y-64790000D02*
X134540000Y-59850000D01*
X134540000Y-59850000D02*
X138990000Y-55400000D01*
%TO.N,/PA8*%
X148900000Y-103180000D02*
X154940000Y-109220000D01*
X148900000Y-73900000D02*
X148900000Y-103180000D01*
X158010000Y-64790000D02*
X148900000Y-73900000D01*
X159900000Y-64790000D02*
X158010000Y-64790000D01*
X161190000Y-63500000D02*
X159900000Y-64790000D01*
%TO.N,/PA10*%
X154940000Y-106680000D02*
X149500000Y-101240000D01*
X149500000Y-101240000D02*
X149500000Y-75190000D01*
X149500000Y-75190000D02*
X158650000Y-66040000D01*
%TO.N,/PB2*%
X154940000Y-104140000D02*
X150100000Y-99300000D01*
X150100000Y-99300000D02*
X150100000Y-77130000D01*
X150100000Y-77130000D02*
X158650000Y-68580000D01*
%TO.N,/PB0*%
X154940000Y-101600000D02*
X150700000Y-97360000D01*
X150700000Y-97360000D02*
X150700000Y-79070000D01*
X150700000Y-79070000D02*
X158650000Y-71120000D01*
%TO.N,/PA1*%
X154940000Y-99060000D02*
X151300000Y-95420000D01*
X151300000Y-95420000D02*
X151300000Y-80100000D01*
X151300000Y-80100000D02*
X157740000Y-73660000D01*
X157740000Y-73660000D02*
X158650000Y-73660000D01*
%TO.N,/PA3*%
X154940000Y-96520000D02*
X151900000Y-93480000D01*
X151900000Y-93480000D02*
X151900000Y-80700000D01*
X151900000Y-80700000D02*
X156400000Y-76200000D01*
X156400000Y-76200000D02*
X158650000Y-76200000D01*
%TO.N,/PA5*%
X154940000Y-93980000D02*
X153280000Y-93980000D01*
X153280000Y-93980000D02*
X152500000Y-93200000D01*
X152500000Y-93200000D02*
X152500000Y-82300000D01*
X152500000Y-82300000D02*
X156060000Y-78740000D01*
X156060000Y-78740000D02*
X158650000Y-78740000D01*
D17*
%TO.N,/VDC*%
X154940000Y-91440000D02*
X154940000Y-88900000D01*
X158650000Y-81280000D02*
X157420000Y-81280000D01*
X157420000Y-81280000D02*
X154940000Y-83760000D01*
X154940000Y-83760000D02*
X154940000Y-88900000D01*
X161190000Y-81280000D02*
X158650000Y-81280000D01*
D16*
%TO.N,/CAN-*%
X139700000Y-104140000D02*
X143350000Y-100490000D01*
%TO.N,/PA15*%
X135790000Y-73660000D02*
X142150000Y-80020000D01*
X142150000Y-80020000D02*
X142150000Y-94070000D01*
X142150000Y-94070000D02*
X139700000Y-96520000D01*
%TO.N,/PB4*%
X139700000Y-93980000D02*
X141550000Y-92130000D01*
X141550000Y-92130000D02*
X141550000Y-81960000D01*
X141550000Y-81960000D02*
X135790000Y-76200000D01*
%TO.N,/PB6*%
X139700000Y-91440000D02*
X140950000Y-90190000D01*
X140950000Y-90190000D02*
X140950000Y-83900000D01*
X140950000Y-83900000D02*
X135790000Y-78740000D01*
%TO.N,/PD0*%
X139700000Y-88900000D02*
X139700000Y-85190000D01*
X139700000Y-85190000D02*
X135790000Y-81280000D01*
%TD*%
%TA.AperFunction,Conductor*%
%TO.N,GND*%
G36*
X140377914Y-64920185D02*
G01*
X140423669Y-64972989D01*
X140427851Y-64984623D01*
X140428057Y-64984549D01*
X140429907Y-64989635D01*
X140429908Y-64989637D01*
X140450662Y-65046674D01*
X140489773Y-65154162D01*
X140568937Y-65291299D01*
X140577296Y-65305779D01*
X140689821Y-65439899D01*
X140823928Y-65552439D01*
X140975541Y-65639981D01*
X141140053Y-65699863D01*
X141312464Y-65730266D01*
X141321073Y-65730266D01*
X141348604Y-65730266D01*
X141348720Y-65730300D01*
X141400000Y-65730300D01*
X141487537Y-65730300D01*
X141487539Y-65730300D01*
X141659956Y-65699896D01*
X141824473Y-65640011D01*
X141938033Y-65574442D01*
X142005928Y-65557968D01*
X142062035Y-65574442D01*
X142175541Y-65639981D01*
X142340053Y-65699863D01*
X142509755Y-65729788D01*
X142572357Y-65760815D01*
X142608247Y-65820763D01*
X142606029Y-65890597D01*
X142595606Y-65913908D01*
X142560019Y-65975541D01*
X142500136Y-66140054D01*
X142469734Y-66312465D01*
X142469734Y-66348604D01*
X142469700Y-66348719D01*
X142469700Y-66400000D01*
X142469700Y-66487539D01*
X142474019Y-66512032D01*
X142500103Y-66659954D01*
X142559989Y-66824473D01*
X142647528Y-66976085D01*
X142647531Y-66976089D01*
X142647533Y-66976092D01*
X142667929Y-67000396D01*
X142733470Y-67078498D01*
X142760077Y-67110203D01*
X142894202Y-67222732D01*
X142963963Y-67263002D01*
X143045824Y-67310257D01*
X143045823Y-67310257D01*
X143045827Y-67310258D01*
X143045830Y-67310260D01*
X143210354Y-67370125D01*
X143210355Y-67370125D01*
X143215442Y-67371976D01*
X143214786Y-67373777D01*
X143267234Y-67405729D01*
X143297778Y-67468568D01*
X143299500Y-67489160D01*
X143299500Y-73608480D01*
X143279815Y-73675519D01*
X143263181Y-73696161D01*
X142270966Y-74688375D01*
X142268240Y-74690942D01*
X142221818Y-74732068D01*
X142186586Y-74783109D01*
X142184368Y-74786124D01*
X142146124Y-74834939D01*
X142146119Y-74834948D01*
X142141960Y-74844188D01*
X142130942Y-74863723D01*
X142125187Y-74872061D01*
X142125183Y-74872067D01*
X142125182Y-74872070D01*
X142125180Y-74872074D01*
X142125179Y-74872077D01*
X142103189Y-74930055D01*
X142101757Y-74933513D01*
X142076305Y-74990068D01*
X142074477Y-75000042D01*
X142068453Y-75021653D01*
X142064860Y-75031127D01*
X142064859Y-75031128D01*
X142057384Y-75092685D01*
X142056821Y-75096386D01*
X142045642Y-75157390D01*
X142045642Y-75157395D01*
X142049387Y-75219302D01*
X142049500Y-75223047D01*
X142049500Y-78629481D01*
X142029815Y-78696520D01*
X141977011Y-78742275D01*
X141907853Y-78752219D01*
X141844297Y-78723194D01*
X141837819Y-78717162D01*
X137152651Y-74031994D01*
X137119166Y-73970671D01*
X137120558Y-73912217D01*
X137125063Y-73895408D01*
X137145659Y-73660000D01*
X137125063Y-73424592D01*
X137063903Y-73196337D01*
X136964035Y-72982171D01*
X136958425Y-72974158D01*
X136828494Y-72788597D01*
X136661402Y-72621506D01*
X136661396Y-72621501D01*
X136475842Y-72491575D01*
X136432217Y-72436998D01*
X136425023Y-72367500D01*
X136456546Y-72305145D01*
X136475842Y-72288425D01*
X136498026Y-72272891D01*
X136661401Y-72158495D01*
X136828495Y-71991401D01*
X136964035Y-71797830D01*
X137063903Y-71583663D01*
X137125063Y-71355408D01*
X137145659Y-71120000D01*
X137125063Y-70884592D01*
X137063903Y-70656337D01*
X136964035Y-70442171D01*
X136960510Y-70437136D01*
X136828494Y-70248597D01*
X136661402Y-70081506D01*
X136661395Y-70081501D01*
X136467834Y-69945967D01*
X136467830Y-69945965D01*
X136253663Y-69846097D01*
X136253659Y-69846096D01*
X136253655Y-69846094D01*
X136025413Y-69784938D01*
X136025403Y-69784936D01*
X135790001Y-69764341D01*
X135789999Y-69764341D01*
X135554597Y-69784936D01*
X135554593Y-69784936D01*
X135554592Y-69784937D01*
X135554587Y-69784938D01*
X135554584Y-69784939D01*
X135537778Y-69789442D01*
X135467928Y-69787778D01*
X135418005Y-69757348D01*
X135279150Y-69618493D01*
X135011598Y-69350941D01*
X135009064Y-69348250D01*
X134967929Y-69301817D01*
X134967928Y-69301816D01*
X134967924Y-69301812D01*
X134916896Y-69266591D01*
X134913887Y-69264377D01*
X134865060Y-69226124D01*
X134865055Y-69226120D01*
X134855813Y-69221961D01*
X134836266Y-69210936D01*
X134827931Y-69205183D01*
X134827932Y-69205183D01*
X134827930Y-69205182D01*
X134769941Y-69183189D01*
X134766490Y-69181759D01*
X134709930Y-69156304D01*
X134699946Y-69154474D01*
X134678343Y-69148451D01*
X134668874Y-69144860D01*
X134668870Y-69144859D01*
X134644005Y-69141840D01*
X134579827Y-69114216D01*
X134540772Y-69056281D01*
X134539179Y-68986651D01*
X134562029Y-68901372D01*
X134585063Y-68815408D01*
X134605659Y-68580000D01*
X134585063Y-68344592D01*
X134523903Y-68116337D01*
X134424035Y-67902171D01*
X134418425Y-67894158D01*
X134288494Y-67708597D01*
X134121402Y-67541506D01*
X134121401Y-67541505D01*
X133935842Y-67411575D01*
X133935841Y-67411574D01*
X133892216Y-67356997D01*
X133885024Y-67287498D01*
X133916546Y-67225144D01*
X133935836Y-67208428D01*
X134121401Y-67078495D01*
X134288495Y-66911401D01*
X134418424Y-66725842D01*
X134473002Y-66682217D01*
X134542500Y-66675023D01*
X134604855Y-66706546D01*
X134621575Y-66725842D01*
X134751500Y-66911395D01*
X134751505Y-66911401D01*
X134918599Y-67078495D01*
X134963880Y-67110201D01*
X135112165Y-67214032D01*
X135112167Y-67214033D01*
X135112170Y-67214035D01*
X135326337Y-67313903D01*
X135554592Y-67375063D01*
X135742918Y-67391539D01*
X135789999Y-67395659D01*
X135790000Y-67395659D01*
X135790001Y-67395659D01*
X135829234Y-67392226D01*
X136025408Y-67375063D01*
X136253663Y-67313903D01*
X136467830Y-67214035D01*
X136661401Y-67078495D01*
X136828495Y-66911401D01*
X136911136Y-66793376D01*
X136965713Y-66749752D01*
X137012711Y-66740500D01*
X137136952Y-66740500D01*
X137140697Y-66740613D01*
X137148042Y-66741057D01*
X137202606Y-66744358D01*
X137240314Y-66737447D01*
X137263621Y-66733177D01*
X137267325Y-66732613D01*
X137285170Y-66730446D01*
X137328872Y-66725140D01*
X137338335Y-66721550D01*
X137359961Y-66715522D01*
X137360893Y-66715351D01*
X137369932Y-66713695D01*
X137426512Y-66688229D01*
X137429942Y-66686809D01*
X137487930Y-66664818D01*
X137496266Y-66659062D01*
X137515821Y-66648034D01*
X137525057Y-66643878D01*
X137573896Y-66605613D01*
X137576876Y-66603421D01*
X137627929Y-66568183D01*
X137669065Y-66521748D01*
X137671599Y-66519056D01*
X139253837Y-64936819D01*
X139315161Y-64903334D01*
X139341519Y-64900500D01*
X140135349Y-64900500D01*
X140310875Y-64900500D01*
X140377914Y-64920185D01*
G37*
%TD.AperFunction*%
%TA.AperFunction,Conductor*%
G36*
X163102028Y-48260633D02*
G01*
X163108650Y-48261066D01*
X163183708Y-48265986D01*
X163365459Y-48278985D01*
X163373100Y-48280015D01*
X163466738Y-48298641D01*
X163489420Y-48303153D01*
X163515023Y-48308722D01*
X163633666Y-48334531D01*
X163640383Y-48336395D01*
X163759437Y-48376809D01*
X163856671Y-48413076D01*
X163891741Y-48426157D01*
X163897499Y-48428643D01*
X164012952Y-48485578D01*
X164134906Y-48552170D01*
X164139634Y-48555032D01*
X164196571Y-48593076D01*
X164246652Y-48626539D01*
X164249361Y-48628456D01*
X164358642Y-48710263D01*
X164362346Y-48713266D01*
X164459517Y-48798482D01*
X164462471Y-48801250D01*
X164558748Y-48897527D01*
X164561522Y-48900488D01*
X164646727Y-48997646D01*
X164649741Y-49001363D01*
X164692900Y-49059018D01*
X164731541Y-49110636D01*
X164733459Y-49113346D01*
X164804962Y-49220357D01*
X164807828Y-49225091D01*
X164874421Y-49347047D01*
X164931355Y-49462499D01*
X164933841Y-49468257D01*
X164970212Y-49565768D01*
X164983196Y-49600578D01*
X165012831Y-49687881D01*
X165023597Y-49719596D01*
X165025472Y-49726352D01*
X165056846Y-49870579D01*
X165079980Y-49986880D01*
X165081015Y-49994560D01*
X165094017Y-50176350D01*
X165099367Y-50257966D01*
X165099500Y-50262023D01*
X165099500Y-84357975D01*
X165099367Y-84362032D01*
X165094017Y-84443648D01*
X165081015Y-84625438D01*
X165079980Y-84633118D01*
X165056846Y-84749420D01*
X165025472Y-84893646D01*
X165023597Y-84900401D01*
X164989297Y-85001448D01*
X164983208Y-85019388D01*
X164983195Y-85019425D01*
X164933841Y-85151741D01*
X164931355Y-85157499D01*
X164874421Y-85272952D01*
X164807828Y-85394907D01*
X164804961Y-85399641D01*
X164733459Y-85506652D01*
X164731541Y-85509362D01*
X164649748Y-85618626D01*
X164646727Y-85622352D01*
X164561522Y-85719510D01*
X164558748Y-85722471D01*
X164462471Y-85818748D01*
X164459510Y-85821522D01*
X164362352Y-85906727D01*
X164358626Y-85909748D01*
X164249362Y-85991541D01*
X164246652Y-85993459D01*
X164139641Y-86064961D01*
X164134907Y-86067828D01*
X164012952Y-86134421D01*
X163897499Y-86191355D01*
X163891741Y-86193841D01*
X163770956Y-86238893D01*
X163759418Y-86243197D01*
X163640401Y-86283597D01*
X163633646Y-86285472D01*
X163489420Y-86316846D01*
X163373118Y-86339980D01*
X163365438Y-86341015D01*
X163183648Y-86354017D01*
X163132582Y-86357364D01*
X163102025Y-86359367D01*
X163097976Y-86359500D01*
X158547096Y-86359500D01*
X158531519Y-86354926D01*
X158488111Y-86359201D01*
X158482031Y-86359500D01*
X158392463Y-86359500D01*
X158329352Y-86370628D01*
X158317550Y-86369311D01*
X158294368Y-86376344D01*
X158287131Y-86378073D01*
X158220062Y-86389898D01*
X158142407Y-86418163D01*
X158129355Y-86418992D01*
X158114133Y-86427129D01*
X158098092Y-86434292D01*
X158055558Y-86449773D01*
X158055550Y-86449777D01*
X157971024Y-86498579D01*
X157956686Y-86502057D01*
X157944818Y-86511797D01*
X157928158Y-86523327D01*
X157903949Y-86537304D01*
X157899509Y-86540414D01*
X157899246Y-86540039D01*
X157885444Y-86549368D01*
X157881918Y-86551252D01*
X157865339Y-86569700D01*
X157818606Y-86608914D01*
X157803590Y-86615485D01*
X157795017Y-86625932D01*
X157778874Y-86642253D01*
X157769836Y-86649836D01*
X157762253Y-86658874D01*
X157745932Y-86675017D01*
X157740904Y-86679143D01*
X157728914Y-86698606D01*
X157689700Y-86745339D01*
X157674824Y-86755235D01*
X157669368Y-86765444D01*
X157660039Y-86779246D01*
X157660414Y-86779509D01*
X157657304Y-86783949D01*
X157643327Y-86808158D01*
X157631797Y-86824818D01*
X157626096Y-86831763D01*
X157618579Y-86851024D01*
X157569777Y-86935550D01*
X157569773Y-86935558D01*
X157554292Y-86978092D01*
X157547129Y-86994133D01*
X157541678Y-87004329D01*
X157538163Y-87022407D01*
X157509898Y-87100062D01*
X157498073Y-87167131D01*
X157496344Y-87174368D01*
X157490831Y-87192541D01*
X157490628Y-87209352D01*
X157479500Y-87272463D01*
X157479500Y-87362030D01*
X157479201Y-87368110D01*
X157475637Y-87404297D01*
X157479500Y-87427096D01*
X157479500Y-128537289D01*
X157479264Y-128542697D01*
X157475523Y-128585445D01*
X157463082Y-128711760D01*
X157459454Y-128731699D01*
X157441601Y-128798330D01*
X157413318Y-128891563D01*
X157407040Y-128907971D01*
X157375614Y-128975367D01*
X157374101Y-128978393D01*
X157329236Y-129062327D01*
X157325341Y-129068667D01*
X157279015Y-129134828D01*
X157276154Y-129138600D01*
X157216895Y-129210808D01*
X157212806Y-129215320D01*
X157155320Y-129272806D01*
X157150808Y-129276895D01*
X157078600Y-129336154D01*
X157074828Y-129339015D01*
X157008667Y-129385341D01*
X157002327Y-129389236D01*
X156918393Y-129434101D01*
X156915367Y-129435614D01*
X156847971Y-129467040D01*
X156831563Y-129473318D01*
X156738330Y-129501601D01*
X156671699Y-129519454D01*
X156651760Y-129523082D01*
X156525445Y-129535523D01*
X156484789Y-129539080D01*
X156482696Y-129539264D01*
X156477290Y-129539500D01*
X138162710Y-129539500D01*
X138157303Y-129539264D01*
X138155015Y-129539063D01*
X138114554Y-129535523D01*
X137988238Y-129523082D01*
X137968299Y-129519454D01*
X137901665Y-129501600D01*
X137808438Y-129473320D01*
X137792027Y-129467041D01*
X137724624Y-129435609D01*
X137721600Y-129434097D01*
X137637666Y-129389234D01*
X137631331Y-129385342D01*
X137598983Y-129362692D01*
X137565172Y-129339016D01*
X137561401Y-129336155D01*
X137489190Y-129276895D01*
X137484688Y-129272815D01*
X137427182Y-129215309D01*
X137423103Y-129210808D01*
X137363843Y-129138597D01*
X137360982Y-129134826D01*
X137339948Y-129104789D01*
X137314650Y-129068659D01*
X137310764Y-129062332D01*
X137265901Y-128978398D01*
X137264389Y-128975374D01*
X137258046Y-128961772D01*
X137232952Y-128907959D01*
X137226680Y-128891563D01*
X137198398Y-128798330D01*
X137180541Y-128731685D01*
X137176918Y-128711771D01*
X137164482Y-128585519D01*
X137160735Y-128542695D01*
X137160500Y-128537293D01*
X137160500Y-124460000D01*
X138344341Y-124460000D01*
X138364936Y-124695403D01*
X138364938Y-124695413D01*
X138426094Y-124923655D01*
X138426096Y-124923659D01*
X138426097Y-124923663D01*
X138525964Y-125137830D01*
X138525965Y-125137830D01*
X138525967Y-125137834D01*
X138634281Y-125292521D01*
X138661505Y-125331401D01*
X138828599Y-125498495D01*
X138925384Y-125566264D01*
X139022165Y-125634032D01*
X139022167Y-125634033D01*
X139022170Y-125634035D01*
X139236337Y-125733903D01*
X139464592Y-125795063D01*
X139652918Y-125811539D01*
X139699999Y-125815659D01*
X139700000Y-125815659D01*
X139700001Y-125815659D01*
X139739234Y-125812226D01*
X139935408Y-125795063D01*
X140163663Y-125733903D01*
X140377830Y-125634035D01*
X140571401Y-125498495D01*
X140738495Y-125331401D01*
X140874035Y-125137830D01*
X140973903Y-124923663D01*
X141035063Y-124695408D01*
X141055659Y-124460000D01*
X141035063Y-124224592D01*
X140973903Y-123996337D01*
X140874035Y-123782171D01*
X140738495Y-123588599D01*
X140738494Y-123588597D01*
X140571402Y-123421506D01*
X140571401Y-123421505D01*
X140385842Y-123291575D01*
X140385841Y-123291574D01*
X140342216Y-123236997D01*
X140335024Y-123167498D01*
X140366546Y-123105144D01*
X140385836Y-123088428D01*
X140571401Y-122958495D01*
X140738495Y-122791401D01*
X140874035Y-122597830D01*
X140973903Y-122383663D01*
X141035063Y-122155408D01*
X141055659Y-121920000D01*
X141035063Y-121684592D01*
X140973903Y-121456337D01*
X140874035Y-121242171D01*
X140738495Y-121048599D01*
X140738494Y-121048597D01*
X140571402Y-120881506D01*
X140571396Y-120881501D01*
X140385842Y-120751575D01*
X140342217Y-120696998D01*
X140335023Y-120627500D01*
X140366546Y-120565145D01*
X140385842Y-120548425D01*
X140408026Y-120532891D01*
X140571401Y-120418495D01*
X140738495Y-120251401D01*
X140874035Y-120057830D01*
X140973903Y-119843663D01*
X141035063Y-119615408D01*
X141055659Y-119380000D01*
X141035063Y-119144592D01*
X140973903Y-118916337D01*
X140874035Y-118702171D01*
X140738495Y-118508599D01*
X140738494Y-118508597D01*
X140571402Y-118341506D01*
X140571395Y-118341501D01*
X140377834Y-118205967D01*
X140377830Y-118205965D01*
X140377830Y-118205964D01*
X140163663Y-118106097D01*
X140163659Y-118106096D01*
X140163655Y-118106094D01*
X139935413Y-118044938D01*
X139935403Y-118044936D01*
X139700001Y-118024341D01*
X139699999Y-118024341D01*
X139464596Y-118044936D01*
X139464586Y-118044938D01*
X139236344Y-118106094D01*
X139236335Y-118106098D01*
X139022171Y-118205964D01*
X139022169Y-118205965D01*
X138828597Y-118341505D01*
X138661505Y-118508597D01*
X138525965Y-118702169D01*
X138525964Y-118702171D01*
X138426098Y-118916335D01*
X138426094Y-118916344D01*
X138364938Y-119144586D01*
X138364936Y-119144596D01*
X138344341Y-119379999D01*
X138344341Y-119380000D01*
X138364936Y-119615403D01*
X138364938Y-119615413D01*
X138426094Y-119843655D01*
X138426096Y-119843659D01*
X138426097Y-119843663D01*
X138525964Y-120057830D01*
X138525965Y-120057830D01*
X138525967Y-120057834D01*
X138661501Y-120251395D01*
X138661506Y-120251402D01*
X138828597Y-120418493D01*
X138828603Y-120418498D01*
X139014158Y-120548425D01*
X139057783Y-120603002D01*
X139064977Y-120672500D01*
X139033454Y-120734855D01*
X139014158Y-120751575D01*
X138828597Y-120881505D01*
X138661505Y-121048597D01*
X138525965Y-121242169D01*
X138525964Y-121242171D01*
X138426098Y-121456335D01*
X138426094Y-121456344D01*
X138364938Y-121684586D01*
X138364936Y-121684596D01*
X138344341Y-121919999D01*
X138344341Y-121920000D01*
X138364936Y-122155403D01*
X138364938Y-122155413D01*
X138426094Y-122383655D01*
X138426096Y-122383659D01*
X138426097Y-122383663D01*
X138525965Y-122597829D01*
X138525965Y-122597830D01*
X138525967Y-122597834D01*
X138661501Y-122791395D01*
X138661506Y-122791402D01*
X138828597Y-122958493D01*
X138828603Y-122958498D01*
X139014158Y-123088425D01*
X139057783Y-123143002D01*
X139064977Y-123212500D01*
X139033454Y-123274855D01*
X139014158Y-123291575D01*
X138828597Y-123421505D01*
X138661505Y-123588597D01*
X138525965Y-123782169D01*
X138525964Y-123782171D01*
X138426098Y-123996335D01*
X138426094Y-123996344D01*
X138364938Y-124224586D01*
X138364936Y-124224596D01*
X138344341Y-124459999D01*
X138344341Y-124460000D01*
X137160500Y-124460000D01*
X137160500Y-87427095D01*
X137165073Y-87411520D01*
X137160799Y-87368120D01*
X137160500Y-87362040D01*
X137160500Y-87272472D01*
X137160500Y-87272468D01*
X137149371Y-87209352D01*
X137150687Y-87197552D01*
X137143657Y-87174379D01*
X137141928Y-87167140D01*
X137141926Y-87167131D01*
X137130101Y-87100062D01*
X137101836Y-87022407D01*
X137101007Y-87009359D01*
X137092874Y-86994143D01*
X137085709Y-86978098D01*
X137085707Y-86978092D01*
X137070225Y-86935555D01*
X137070222Y-86935550D01*
X137070221Y-86935547D01*
X137021421Y-86851025D01*
X137017942Y-86836688D01*
X137008206Y-86824824D01*
X136996675Y-86808163D01*
X136982692Y-86783945D01*
X136979586Y-86779509D01*
X136979961Y-86779245D01*
X136970627Y-86765438D01*
X136968745Y-86761918D01*
X136950297Y-86745337D01*
X136911085Y-86698606D01*
X136904513Y-86683590D01*
X136894070Y-86675020D01*
X136877744Y-86658872D01*
X136870163Y-86649837D01*
X136861125Y-86642253D01*
X136844977Y-86625928D01*
X136840853Y-86620903D01*
X136821393Y-86608914D01*
X136774661Y-86569702D01*
X136764762Y-86554824D01*
X136754560Y-86549371D01*
X136740754Y-86540038D01*
X136740491Y-86540414D01*
X136736057Y-86537310D01*
X136736055Y-86537308D01*
X136724174Y-86530448D01*
X136711838Y-86523326D01*
X136695173Y-86511792D01*
X136688232Y-86506096D01*
X136668974Y-86498578D01*
X136584449Y-86449777D01*
X136584448Y-86449776D01*
X136576230Y-86446785D01*
X136541900Y-86434289D01*
X136525862Y-86427128D01*
X136515669Y-86421679D01*
X136497592Y-86418162D01*
X136419940Y-86389899D01*
X136352866Y-86378072D01*
X136345629Y-86376343D01*
X136327463Y-86370832D01*
X136310646Y-86370628D01*
X136247536Y-86359500D01*
X136247532Y-86359500D01*
X136160099Y-86359500D01*
X136157968Y-86359500D01*
X136151888Y-86359201D01*
X136115701Y-86355637D01*
X136092903Y-86359500D01*
X131542024Y-86359500D01*
X131537974Y-86359367D01*
X131499954Y-86356875D01*
X131456350Y-86354017D01*
X131274560Y-86341015D01*
X131266880Y-86339980D01*
X131150579Y-86316846D01*
X131006352Y-86285472D01*
X130999596Y-86283597D01*
X130967881Y-86272831D01*
X130880578Y-86243196D01*
X130845768Y-86230212D01*
X130748257Y-86193841D01*
X130742499Y-86191355D01*
X130627047Y-86134421D01*
X130505091Y-86067828D01*
X130500357Y-86064962D01*
X130393349Y-85993461D01*
X130390639Y-85991543D01*
X130350592Y-85961564D01*
X130281353Y-85909732D01*
X130277646Y-85906727D01*
X130180492Y-85821526D01*
X130177549Y-85818769D01*
X130081228Y-85722448D01*
X130078469Y-85719502D01*
X130045450Y-85681851D01*
X129993265Y-85622345D01*
X129990271Y-85618652D01*
X129908454Y-85509358D01*
X129906537Y-85506649D01*
X129905542Y-85505160D01*
X129835032Y-85399634D01*
X129832170Y-85394906D01*
X129765578Y-85272952D01*
X129708643Y-85157499D01*
X129706157Y-85151741D01*
X129693076Y-85116671D01*
X129656805Y-85019425D01*
X129616395Y-84900383D01*
X129614531Y-84893666D01*
X129583153Y-84749420D01*
X129569286Y-84679708D01*
X129560015Y-84633100D01*
X129558985Y-84625459D01*
X129545988Y-84443743D01*
X129540631Y-84362007D01*
X129540499Y-84357994D01*
X129540499Y-70114686D01*
X130295642Y-70114686D01*
X130306821Y-70175693D01*
X130307384Y-70179394D01*
X130314859Y-70240951D01*
X130314860Y-70240955D01*
X130318451Y-70250424D01*
X130324474Y-70272027D01*
X130326304Y-70282011D01*
X130351759Y-70338571D01*
X130353189Y-70342022D01*
X130375182Y-70400011D01*
X130375183Y-70400012D01*
X130380936Y-70408347D01*
X130391961Y-70427894D01*
X130396120Y-70437136D01*
X130396124Y-70437141D01*
X130400065Y-70442171D01*
X130433601Y-70484977D01*
X130434371Y-70485959D01*
X130436591Y-70488977D01*
X130471812Y-70540005D01*
X130471816Y-70540009D01*
X130471817Y-70540010D01*
X130518250Y-70581145D01*
X130520941Y-70583679D01*
X131536318Y-71599056D01*
X131538854Y-71601750D01*
X131579990Y-71648183D01*
X131611350Y-71669829D01*
X131631029Y-71683413D01*
X131634046Y-71685633D01*
X131682857Y-71723874D01*
X131682862Y-71723877D01*
X131692093Y-71728031D01*
X131711646Y-71739059D01*
X131719989Y-71744818D01*
X131777976Y-71766809D01*
X131781431Y-71768239D01*
X131811012Y-71781553D01*
X131837982Y-71793692D01*
X131837983Y-71793692D01*
X131837987Y-71793694D01*
X131847949Y-71795519D01*
X131869570Y-71801546D01*
X131879044Y-71805139D01*
X131879047Y-71805140D01*
X131884829Y-71805842D01*
X131940608Y-71812615D01*
X131944305Y-71813177D01*
X132005313Y-71824357D01*
X132021651Y-71823368D01*
X132089754Y-71838967D01*
X132130714Y-71876019D01*
X132211505Y-71991402D01*
X132378597Y-72158493D01*
X132378603Y-72158498D01*
X132564158Y-72288425D01*
X132607783Y-72343002D01*
X132614977Y-72412500D01*
X132583454Y-72474855D01*
X132564158Y-72491575D01*
X132378597Y-72621505D01*
X132211505Y-72788597D01*
X132075965Y-72982169D01*
X132075964Y-72982171D01*
X131976098Y-73196335D01*
X131976094Y-73196344D01*
X131914938Y-73424586D01*
X131914936Y-73424596D01*
X131894341Y-73659999D01*
X131894341Y-73660000D01*
X131914936Y-73895403D01*
X131914938Y-73895413D01*
X131976094Y-74123655D01*
X131976096Y-74123659D01*
X131976097Y-74123663D01*
X131980000Y-74132032D01*
X132075965Y-74337830D01*
X132075967Y-74337834D01*
X132184281Y-74492521D01*
X132211501Y-74531396D01*
X132211506Y-74531402D01*
X132378597Y-74698493D01*
X132378603Y-74698498D01*
X132564158Y-74828425D01*
X132607783Y-74883002D01*
X132614977Y-74952500D01*
X132583454Y-75014855D01*
X132564158Y-75031575D01*
X132378597Y-75161505D01*
X132211505Y-75328597D01*
X132075965Y-75522169D01*
X132075964Y-75522171D01*
X131976098Y-75736335D01*
X131976094Y-75736344D01*
X131914938Y-75964586D01*
X131914936Y-75964596D01*
X131894341Y-76199999D01*
X131894341Y-76200000D01*
X131914936Y-76435403D01*
X131914938Y-76435413D01*
X131976094Y-76663655D01*
X131976096Y-76663659D01*
X131976097Y-76663663D01*
X131980000Y-76672032D01*
X132075965Y-76877830D01*
X132075967Y-76877834D01*
X132184281Y-77032521D01*
X132211501Y-77071396D01*
X132211506Y-77071402D01*
X132378597Y-77238493D01*
X132378603Y-77238498D01*
X132564158Y-77368425D01*
X132607783Y-77423002D01*
X132614977Y-77492500D01*
X132583454Y-77554855D01*
X132564158Y-77571575D01*
X132378597Y-77701505D01*
X132211505Y-77868597D01*
X132075965Y-78062169D01*
X132075964Y-78062171D01*
X131976098Y-78276335D01*
X131976094Y-78276344D01*
X131914938Y-78504586D01*
X131914936Y-78504596D01*
X131894341Y-78739999D01*
X131894341Y-78740000D01*
X131914936Y-78975403D01*
X131914938Y-78975413D01*
X131976094Y-79203655D01*
X131976096Y-79203659D01*
X131976097Y-79203663D01*
X131980000Y-79212032D01*
X132075965Y-79417830D01*
X132075967Y-79417834D01*
X132184281Y-79572521D01*
X132211501Y-79611396D01*
X132211506Y-79611402D01*
X132378597Y-79778493D01*
X132378603Y-79778498D01*
X132564158Y-79908425D01*
X132607783Y-79963002D01*
X132614977Y-80032500D01*
X132583454Y-80094855D01*
X132564158Y-80111575D01*
X132378597Y-80241505D01*
X132211505Y-80408597D01*
X132075965Y-80602169D01*
X132075964Y-80602171D01*
X131976098Y-80816335D01*
X131976094Y-80816344D01*
X131914938Y-81044586D01*
X131914936Y-81044596D01*
X131894341Y-81279999D01*
X131894341Y-81280000D01*
X131914936Y-81515403D01*
X131914938Y-81515413D01*
X131976094Y-81743655D01*
X131976096Y-81743659D01*
X131976097Y-81743663D01*
X132041915Y-81884810D01*
X132075965Y-81957830D01*
X132075967Y-81957834D01*
X132177971Y-82103509D01*
X132211505Y-82151401D01*
X132378599Y-82318495D01*
X132475384Y-82386264D01*
X132572165Y-82454032D01*
X132572167Y-82454033D01*
X132572170Y-82454035D01*
X132786337Y-82553903D01*
X133014592Y-82615063D01*
X133189685Y-82630382D01*
X133249999Y-82635659D01*
X133250000Y-82635659D01*
X133250001Y-82635659D01*
X133289318Y-82632219D01*
X133485408Y-82615063D01*
X133713663Y-82553903D01*
X133927830Y-82454035D01*
X134121401Y-82318495D01*
X134288495Y-82151401D01*
X134418424Y-81965842D01*
X134473002Y-81922217D01*
X134542500Y-81915023D01*
X134604855Y-81946546D01*
X134621575Y-81965842D01*
X134751500Y-82151395D01*
X134751505Y-82151401D01*
X134918599Y-82318495D01*
X135015384Y-82386264D01*
X135112165Y-82454032D01*
X135112167Y-82454033D01*
X135112170Y-82454035D01*
X135326337Y-82553903D01*
X135554592Y-82615063D01*
X135729685Y-82630382D01*
X135789999Y-82635659D01*
X135790000Y-82635659D01*
X135790001Y-82635659D01*
X135829318Y-82632219D01*
X136025408Y-82615063D01*
X136042216Y-82610559D01*
X136112064Y-82612218D01*
X136161994Y-82642651D01*
X138963182Y-85443839D01*
X138996666Y-85505160D01*
X138999500Y-85531518D01*
X138999500Y-87425500D01*
X138979815Y-87492539D01*
X138927011Y-87538294D01*
X138875502Y-87549500D01*
X138802130Y-87549500D01*
X138802123Y-87549501D01*
X138742516Y-87555908D01*
X138607671Y-87606202D01*
X138607664Y-87606206D01*
X138492455Y-87692452D01*
X138492452Y-87692455D01*
X138406206Y-87807664D01*
X138406202Y-87807671D01*
X138355908Y-87942517D01*
X138349501Y-88002116D01*
X138349500Y-88002135D01*
X138349500Y-89797870D01*
X138349501Y-89797876D01*
X138355908Y-89857483D01*
X138406202Y-89992328D01*
X138406206Y-89992335D01*
X138492452Y-90107544D01*
X138492455Y-90107547D01*
X138607664Y-90193793D01*
X138607671Y-90193797D01*
X138739081Y-90242810D01*
X138795015Y-90284681D01*
X138819432Y-90350145D01*
X138804580Y-90418418D01*
X138783430Y-90446673D01*
X138661503Y-90568600D01*
X138525965Y-90762169D01*
X138525964Y-90762171D01*
X138426098Y-90976335D01*
X138426094Y-90976344D01*
X138364938Y-91204586D01*
X138364936Y-91204596D01*
X138344341Y-91439999D01*
X138344341Y-91440000D01*
X138364936Y-91675403D01*
X138364938Y-91675413D01*
X138426094Y-91903655D01*
X138426096Y-91903659D01*
X138426097Y-91903663D01*
X138525965Y-92117829D01*
X138525965Y-92117830D01*
X138525967Y-92117834D01*
X138661501Y-92311395D01*
X138661506Y-92311402D01*
X138828597Y-92478493D01*
X138828603Y-92478498D01*
X139014158Y-92608425D01*
X139057783Y-92663002D01*
X139064977Y-92732500D01*
X139033454Y-92794855D01*
X139014158Y-92811575D01*
X138828597Y-92941505D01*
X138661505Y-93108597D01*
X138525965Y-93302169D01*
X138525964Y-93302171D01*
X138426098Y-93516335D01*
X138426094Y-93516344D01*
X138364938Y-93744586D01*
X138364936Y-93744596D01*
X138344341Y-93979999D01*
X138344341Y-93980000D01*
X138364936Y-94215403D01*
X138364938Y-94215413D01*
X138426094Y-94443655D01*
X138426096Y-94443659D01*
X138426097Y-94443663D01*
X138485549Y-94571157D01*
X138525965Y-94657830D01*
X138525967Y-94657834D01*
X138661501Y-94851395D01*
X138661506Y-94851402D01*
X138828597Y-95018493D01*
X138828603Y-95018498D01*
X139014158Y-95148425D01*
X139057783Y-95203002D01*
X139064977Y-95272500D01*
X139033454Y-95334855D01*
X139014158Y-95351575D01*
X138828597Y-95481505D01*
X138661505Y-95648597D01*
X138525965Y-95842169D01*
X138525964Y-95842171D01*
X138426098Y-96056335D01*
X138426094Y-96056344D01*
X138364938Y-96284586D01*
X138364936Y-96284596D01*
X138344341Y-96519999D01*
X138344341Y-96520000D01*
X138364936Y-96755403D01*
X138364938Y-96755413D01*
X138426094Y-96983655D01*
X138426096Y-96983659D01*
X138426097Y-96983663D01*
X138525965Y-97197830D01*
X138525967Y-97197834D01*
X138634281Y-97352521D01*
X138661505Y-97391401D01*
X138828599Y-97558495D01*
X138925384Y-97626265D01*
X139022165Y-97694032D01*
X139022167Y-97694033D01*
X139022170Y-97694035D01*
X139236337Y-97793903D01*
X139464592Y-97855063D01*
X139652918Y-97871539D01*
X139699999Y-97875659D01*
X139700000Y-97875659D01*
X139700001Y-97875659D01*
X139739234Y-97872226D01*
X139935408Y-97855063D01*
X140163663Y-97793903D01*
X140377830Y-97694035D01*
X140571401Y-97558495D01*
X140738495Y-97391401D01*
X140874035Y-97197830D01*
X140973903Y-96983663D01*
X141035063Y-96755408D01*
X141055659Y-96520000D01*
X141035063Y-96284592D01*
X141030558Y-96267778D01*
X141032219Y-96197932D01*
X141062649Y-96148006D01*
X141837820Y-95372836D01*
X141899142Y-95339352D01*
X141968834Y-95344336D01*
X142024767Y-95386208D01*
X142049184Y-95451672D01*
X142049500Y-95460518D01*
X142049500Y-98208480D01*
X142029815Y-98275519D01*
X142013181Y-98296161D01*
X140071994Y-100237347D01*
X140010671Y-100270832D01*
X139952225Y-100269442D01*
X139935410Y-100264937D01*
X139700001Y-100244341D01*
X139699999Y-100244341D01*
X139464596Y-100264936D01*
X139464586Y-100264938D01*
X139236344Y-100326094D01*
X139236335Y-100326098D01*
X139022171Y-100425964D01*
X139022169Y-100425965D01*
X138828597Y-100561505D01*
X138661505Y-100728597D01*
X138525965Y-100922169D01*
X138525964Y-100922171D01*
X138426098Y-101136335D01*
X138426094Y-101136344D01*
X138364938Y-101364586D01*
X138364936Y-101364596D01*
X138344341Y-101599999D01*
X138344341Y-101600000D01*
X138364936Y-101835403D01*
X138364938Y-101835413D01*
X138426094Y-102063655D01*
X138426096Y-102063659D01*
X138426097Y-102063663D01*
X138525965Y-102277829D01*
X138525965Y-102277830D01*
X138525967Y-102277834D01*
X138661501Y-102471395D01*
X138661506Y-102471402D01*
X138828597Y-102638493D01*
X138828603Y-102638498D01*
X139014158Y-102768425D01*
X139057783Y-102823002D01*
X139064977Y-102892500D01*
X139033454Y-102954855D01*
X139014158Y-102971575D01*
X138828597Y-103101505D01*
X138661505Y-103268597D01*
X138525965Y-103462169D01*
X138525964Y-103462171D01*
X138426098Y-103676335D01*
X138426094Y-103676344D01*
X138364938Y-103904586D01*
X138364936Y-103904596D01*
X138344341Y-104139999D01*
X138344341Y-104140000D01*
X138364936Y-104375403D01*
X138364938Y-104375413D01*
X138426094Y-104603655D01*
X138426096Y-104603659D01*
X138426097Y-104603663D01*
X138525964Y-104817830D01*
X138525965Y-104817830D01*
X138525967Y-104817834D01*
X138661501Y-105011395D01*
X138661506Y-105011402D01*
X138828597Y-105178493D01*
X138828603Y-105178498D01*
X139014158Y-105308425D01*
X139057783Y-105363002D01*
X139064977Y-105432500D01*
X139033454Y-105494855D01*
X139014158Y-105511575D01*
X138828597Y-105641505D01*
X138661505Y-105808597D01*
X138525965Y-106002169D01*
X138525964Y-106002171D01*
X138426098Y-106216335D01*
X138426094Y-106216344D01*
X138364938Y-106444586D01*
X138364936Y-106444596D01*
X138344341Y-106679999D01*
X138344341Y-106680000D01*
X138364936Y-106915403D01*
X138364938Y-106915413D01*
X138426094Y-107143655D01*
X138426096Y-107143659D01*
X138426097Y-107143663D01*
X138525965Y-107357829D01*
X138525965Y-107357830D01*
X138525967Y-107357834D01*
X138661501Y-107551395D01*
X138661506Y-107551402D01*
X138828597Y-107718493D01*
X138828603Y-107718498D01*
X139014158Y-107848425D01*
X139057783Y-107903002D01*
X139064977Y-107972500D01*
X139033454Y-108034855D01*
X139014158Y-108051575D01*
X138828597Y-108181505D01*
X138661505Y-108348597D01*
X138525965Y-108542169D01*
X138525964Y-108542171D01*
X138426098Y-108756335D01*
X138426094Y-108756344D01*
X138364938Y-108984586D01*
X138364936Y-108984596D01*
X138344341Y-109219999D01*
X138344341Y-109220000D01*
X138364936Y-109455403D01*
X138364938Y-109455413D01*
X138426094Y-109683655D01*
X138426096Y-109683659D01*
X138426097Y-109683663D01*
X138525964Y-109897830D01*
X138525965Y-109897830D01*
X138525967Y-109897834D01*
X138661501Y-110091395D01*
X138661506Y-110091402D01*
X138828597Y-110258493D01*
X138828603Y-110258498D01*
X139014158Y-110388425D01*
X139057783Y-110443002D01*
X139064977Y-110512500D01*
X139033454Y-110574855D01*
X139014158Y-110591575D01*
X138828597Y-110721505D01*
X138661505Y-110888597D01*
X138525965Y-111082169D01*
X138525964Y-111082171D01*
X138426098Y-111296335D01*
X138426094Y-111296344D01*
X138364938Y-111524586D01*
X138364936Y-111524596D01*
X138344341Y-111759999D01*
X138344341Y-111760000D01*
X138364936Y-111995403D01*
X138364938Y-111995413D01*
X138426094Y-112223655D01*
X138426096Y-112223659D01*
X138426097Y-112223663D01*
X138525965Y-112437830D01*
X138525967Y-112437834D01*
X138661501Y-112631395D01*
X138661506Y-112631402D01*
X138828597Y-112798493D01*
X138828603Y-112798498D01*
X139014158Y-112928425D01*
X139057783Y-112983002D01*
X139064977Y-113052500D01*
X139033454Y-113114855D01*
X139014158Y-113131575D01*
X138828597Y-113261505D01*
X138661505Y-113428597D01*
X138525965Y-113622169D01*
X138525964Y-113622171D01*
X138426098Y-113836335D01*
X138426094Y-113836344D01*
X138364938Y-114064586D01*
X138364936Y-114064596D01*
X138344341Y-114299999D01*
X138344341Y-114300000D01*
X138364936Y-114535403D01*
X138364938Y-114535413D01*
X138426094Y-114763655D01*
X138426096Y-114763659D01*
X138426097Y-114763663D01*
X138525964Y-114977830D01*
X138525965Y-114977830D01*
X138525967Y-114977834D01*
X138634281Y-115132521D01*
X138661505Y-115171401D01*
X138828599Y-115338495D01*
X138925384Y-115406264D01*
X139022165Y-115474032D01*
X139022167Y-115474033D01*
X139022170Y-115474035D01*
X139236337Y-115573903D01*
X139464592Y-115635063D01*
X139652918Y-115651539D01*
X139699999Y-115655659D01*
X139700000Y-115655659D01*
X139700001Y-115655659D01*
X139739234Y-115652226D01*
X139935408Y-115635063D01*
X140163663Y-115573903D01*
X140377830Y-115474035D01*
X140571401Y-115338495D01*
X140738495Y-115171401D01*
X140874035Y-114977830D01*
X140973903Y-114763663D01*
X141035063Y-114535408D01*
X141055659Y-114300000D01*
X141035063Y-114064592D01*
X140973903Y-113836337D01*
X140874035Y-113622171D01*
X140738495Y-113428599D01*
X140738494Y-113428597D01*
X140571402Y-113261506D01*
X140571401Y-113261505D01*
X140385842Y-113131575D01*
X140385841Y-113131574D01*
X140342216Y-113076997D01*
X140335024Y-113007498D01*
X140366546Y-112945144D01*
X140385836Y-112928428D01*
X140571401Y-112798495D01*
X140738495Y-112631401D01*
X140874035Y-112437830D01*
X140973903Y-112223663D01*
X141035063Y-111995408D01*
X141055659Y-111760000D01*
X141035063Y-111524592D01*
X140973903Y-111296337D01*
X140874035Y-111082171D01*
X140738495Y-110888599D01*
X140738494Y-110888597D01*
X140571402Y-110721506D01*
X140571396Y-110721501D01*
X140385842Y-110591575D01*
X140342217Y-110536998D01*
X140335023Y-110467500D01*
X140366546Y-110405145D01*
X140385842Y-110388425D01*
X140408026Y-110372891D01*
X140571401Y-110258495D01*
X140738495Y-110091401D01*
X140874035Y-109897830D01*
X140973903Y-109683663D01*
X141035063Y-109455408D01*
X141055659Y-109220000D01*
X141035063Y-108984592D01*
X140973903Y-108756337D01*
X140874035Y-108542171D01*
X140738495Y-108348599D01*
X140738494Y-108348597D01*
X140571402Y-108181506D01*
X140571401Y-108181505D01*
X140385842Y-108051575D01*
X140385841Y-108051574D01*
X140342216Y-107996997D01*
X140335024Y-107927498D01*
X140366546Y-107865144D01*
X140385836Y-107848428D01*
X140571401Y-107718495D01*
X140738495Y-107551401D01*
X140874035Y-107357830D01*
X140973903Y-107143663D01*
X141035063Y-106915408D01*
X141055659Y-106680000D01*
X141035063Y-106444592D01*
X140973903Y-106216337D01*
X140874035Y-106002171D01*
X140738495Y-105808599D01*
X140738494Y-105808597D01*
X140571402Y-105641506D01*
X140571396Y-105641501D01*
X140385842Y-105511575D01*
X140342217Y-105456998D01*
X140335023Y-105387500D01*
X140366546Y-105325145D01*
X140385842Y-105308425D01*
X140408026Y-105292891D01*
X140571401Y-105178495D01*
X140738495Y-105011401D01*
X140874035Y-104817830D01*
X140973903Y-104603663D01*
X141035063Y-104375408D01*
X141055659Y-104140000D01*
X141035063Y-103904592D01*
X141030558Y-103887778D01*
X141032219Y-103817932D01*
X141062649Y-103768006D01*
X141608050Y-103222605D01*
X148195642Y-103222605D01*
X148206821Y-103283612D01*
X148207384Y-103287313D01*
X148214859Y-103348870D01*
X148214860Y-103348874D01*
X148218451Y-103358343D01*
X148224474Y-103379946D01*
X148226304Y-103389930D01*
X148251759Y-103446490D01*
X148253189Y-103449941D01*
X148275182Y-103507930D01*
X148275183Y-103507931D01*
X148280936Y-103516266D01*
X148291961Y-103535813D01*
X148296120Y-103545055D01*
X148296124Y-103545060D01*
X148334371Y-103593878D01*
X148336591Y-103596896D01*
X148371812Y-103647924D01*
X148371816Y-103647928D01*
X148371817Y-103647929D01*
X148418250Y-103689064D01*
X148420941Y-103691598D01*
X151037348Y-106308005D01*
X153577348Y-108848005D01*
X153610833Y-108909328D01*
X153609442Y-108967778D01*
X153604939Y-108984584D01*
X153604936Y-108984597D01*
X153584341Y-109219999D01*
X153584341Y-109220000D01*
X153604936Y-109455403D01*
X153604938Y-109455413D01*
X153666094Y-109683655D01*
X153666096Y-109683659D01*
X153666097Y-109683663D01*
X153765965Y-109897829D01*
X153765965Y-109897830D01*
X153765967Y-109897834D01*
X153901501Y-110091395D01*
X153901506Y-110091402D01*
X154068597Y-110258493D01*
X154068603Y-110258498D01*
X154254158Y-110388425D01*
X154297783Y-110443002D01*
X154304977Y-110512500D01*
X154273454Y-110574855D01*
X154254158Y-110591575D01*
X154068597Y-110721505D01*
X153901505Y-110888597D01*
X153765965Y-111082169D01*
X153765964Y-111082171D01*
X153666098Y-111296335D01*
X153666094Y-111296344D01*
X153604938Y-111524586D01*
X153604936Y-111524596D01*
X153584341Y-111759999D01*
X153584341Y-111760000D01*
X153604936Y-111995403D01*
X153604938Y-111995413D01*
X153666094Y-112223655D01*
X153666096Y-112223659D01*
X153666097Y-112223663D01*
X153765965Y-112437830D01*
X153765967Y-112437834D01*
X153901501Y-112631395D01*
X153901506Y-112631402D01*
X154068597Y-112798493D01*
X154068603Y-112798498D01*
X154254158Y-112928425D01*
X154297783Y-112983002D01*
X154304977Y-113052500D01*
X154273454Y-113114855D01*
X154254158Y-113131575D01*
X154068597Y-113261505D01*
X153901505Y-113428597D01*
X153765965Y-113622169D01*
X153765964Y-113622171D01*
X153666098Y-113836335D01*
X153666094Y-113836344D01*
X153604938Y-114064586D01*
X153604936Y-114064596D01*
X153584341Y-114299999D01*
X153584341Y-114300000D01*
X153604936Y-114535403D01*
X153604938Y-114535413D01*
X153666094Y-114763655D01*
X153666096Y-114763659D01*
X153666097Y-114763663D01*
X153765965Y-114977829D01*
X153765965Y-114977830D01*
X153765967Y-114977834D01*
X153901501Y-115171395D01*
X153901506Y-115171402D01*
X154068597Y-115338493D01*
X154068603Y-115338498D01*
X154254158Y-115468425D01*
X154297783Y-115523002D01*
X154304977Y-115592500D01*
X154273454Y-115654855D01*
X154254158Y-115671575D01*
X154068597Y-115801505D01*
X153901505Y-115968597D01*
X153765965Y-116162169D01*
X153765964Y-116162171D01*
X153666098Y-116376335D01*
X153666094Y-116376344D01*
X153604938Y-116604586D01*
X153604936Y-116604596D01*
X153584341Y-116839999D01*
X153584341Y-116840000D01*
X153604936Y-117075403D01*
X153604938Y-117075413D01*
X153666094Y-117303655D01*
X153666096Y-117303659D01*
X153666097Y-117303663D01*
X153765965Y-117517830D01*
X153765967Y-117517834D01*
X153901501Y-117711395D01*
X153901506Y-117711402D01*
X154068597Y-117878493D01*
X154068603Y-117878498D01*
X154254158Y-118008425D01*
X154297783Y-118063002D01*
X154304977Y-118132500D01*
X154273454Y-118194855D01*
X154254158Y-118211575D01*
X154068597Y-118341505D01*
X153901505Y-118508597D01*
X153765965Y-118702169D01*
X153765964Y-118702171D01*
X153666098Y-118916335D01*
X153666094Y-118916344D01*
X153604938Y-119144586D01*
X153604936Y-119144596D01*
X153584341Y-119379999D01*
X153584341Y-119380000D01*
X153604936Y-119615403D01*
X153604938Y-119615413D01*
X153666094Y-119843655D01*
X153666096Y-119843659D01*
X153666097Y-119843663D01*
X153765965Y-120057829D01*
X153765965Y-120057830D01*
X153765967Y-120057834D01*
X153901501Y-120251395D01*
X153901506Y-120251402D01*
X154068597Y-120418493D01*
X154068603Y-120418498D01*
X154254158Y-120548425D01*
X154297783Y-120603002D01*
X154304977Y-120672500D01*
X154273454Y-120734855D01*
X154254158Y-120751575D01*
X154068597Y-120881505D01*
X153901505Y-121048597D01*
X153765965Y-121242169D01*
X153765964Y-121242171D01*
X153666098Y-121456335D01*
X153666094Y-121456344D01*
X153604938Y-121684586D01*
X153604936Y-121684596D01*
X153584341Y-121919999D01*
X153584341Y-121920000D01*
X153604936Y-122155403D01*
X153604938Y-122155413D01*
X153666094Y-122383655D01*
X153666096Y-122383659D01*
X153666097Y-122383663D01*
X153765965Y-122597829D01*
X153765965Y-122597830D01*
X153765967Y-122597834D01*
X153901501Y-122791395D01*
X153901506Y-122791402D01*
X154068597Y-122958493D01*
X154068603Y-122958498D01*
X154254158Y-123088425D01*
X154297783Y-123143002D01*
X154304977Y-123212500D01*
X154273454Y-123274855D01*
X154254158Y-123291575D01*
X154068597Y-123421505D01*
X153901505Y-123588597D01*
X153765965Y-123782169D01*
X153765964Y-123782171D01*
X153666098Y-123996335D01*
X153666094Y-123996344D01*
X153604938Y-124224586D01*
X153604936Y-124224596D01*
X153584341Y-124459999D01*
X153584341Y-124460000D01*
X153604936Y-124695403D01*
X153604938Y-124695413D01*
X153666094Y-124923655D01*
X153666096Y-124923659D01*
X153666097Y-124923663D01*
X153765965Y-125137829D01*
X153765965Y-125137830D01*
X153765967Y-125137834D01*
X153874281Y-125292521D01*
X153901505Y-125331401D01*
X154068599Y-125498495D01*
X154165384Y-125566264D01*
X154262165Y-125634032D01*
X154262167Y-125634033D01*
X154262170Y-125634035D01*
X154476337Y-125733903D01*
X154704592Y-125795063D01*
X154892918Y-125811539D01*
X154939999Y-125815659D01*
X154940000Y-125815659D01*
X154940001Y-125815659D01*
X154979234Y-125812226D01*
X155175408Y-125795063D01*
X155403663Y-125733903D01*
X155617830Y-125634035D01*
X155811401Y-125498495D01*
X155978495Y-125331401D01*
X156114035Y-125137830D01*
X156213903Y-124923663D01*
X156275063Y-124695408D01*
X156295659Y-124460000D01*
X156275063Y-124224592D01*
X156213903Y-123996337D01*
X156114035Y-123782171D01*
X155978495Y-123588599D01*
X155978494Y-123588597D01*
X155811402Y-123421506D01*
X155811401Y-123421505D01*
X155625842Y-123291575D01*
X155625841Y-123291574D01*
X155582216Y-123236997D01*
X155575024Y-123167498D01*
X155606546Y-123105144D01*
X155625836Y-123088428D01*
X155811401Y-122958495D01*
X155978495Y-122791401D01*
X156114035Y-122597830D01*
X156213903Y-122383663D01*
X156275063Y-122155408D01*
X156295659Y-121920000D01*
X156275063Y-121684592D01*
X156213903Y-121456337D01*
X156114035Y-121242171D01*
X155978495Y-121048599D01*
X155978494Y-121048597D01*
X155811402Y-120881506D01*
X155811396Y-120881501D01*
X155625842Y-120751575D01*
X155582217Y-120696998D01*
X155575023Y-120627500D01*
X155606546Y-120565145D01*
X155625842Y-120548425D01*
X155648026Y-120532891D01*
X155811401Y-120418495D01*
X155978495Y-120251401D01*
X156114035Y-120057830D01*
X156213903Y-119843663D01*
X156275063Y-119615408D01*
X156295659Y-119380000D01*
X156275063Y-119144592D01*
X156213903Y-118916337D01*
X156114035Y-118702171D01*
X155978495Y-118508599D01*
X155978494Y-118508597D01*
X155811402Y-118341506D01*
X155811401Y-118341505D01*
X155625842Y-118211575D01*
X155625841Y-118211574D01*
X155582216Y-118156997D01*
X155575024Y-118087498D01*
X155606546Y-118025144D01*
X155625836Y-118008428D01*
X155811401Y-117878495D01*
X155978495Y-117711401D01*
X156114035Y-117517830D01*
X156213903Y-117303663D01*
X156275063Y-117075408D01*
X156295659Y-116840000D01*
X156275063Y-116604592D01*
X156213903Y-116376337D01*
X156114035Y-116162171D01*
X155978495Y-115968599D01*
X155978494Y-115968597D01*
X155811402Y-115801506D01*
X155811396Y-115801501D01*
X155625842Y-115671575D01*
X155582217Y-115616998D01*
X155575023Y-115547500D01*
X155606546Y-115485145D01*
X155625842Y-115468425D01*
X155648026Y-115452891D01*
X155811401Y-115338495D01*
X155978495Y-115171401D01*
X156114035Y-114977830D01*
X156213903Y-114763663D01*
X156275063Y-114535408D01*
X156295659Y-114300000D01*
X156275063Y-114064592D01*
X156213903Y-113836337D01*
X156114035Y-113622171D01*
X155978495Y-113428599D01*
X155978494Y-113428597D01*
X155811402Y-113261506D01*
X155811401Y-113261505D01*
X155625842Y-113131575D01*
X155625841Y-113131574D01*
X155582216Y-113076997D01*
X155575024Y-113007498D01*
X155606546Y-112945144D01*
X155625836Y-112928428D01*
X155811401Y-112798495D01*
X155978495Y-112631401D01*
X156114035Y-112437830D01*
X156213903Y-112223663D01*
X156275063Y-111995408D01*
X156295659Y-111760000D01*
X156275063Y-111524592D01*
X156213903Y-111296337D01*
X156114035Y-111082171D01*
X155978495Y-110888599D01*
X155978494Y-110888597D01*
X155811402Y-110721506D01*
X155811396Y-110721501D01*
X155625842Y-110591575D01*
X155582217Y-110536998D01*
X155575023Y-110467500D01*
X155606546Y-110405145D01*
X155625842Y-110388425D01*
X155648026Y-110372891D01*
X155811401Y-110258495D01*
X155978495Y-110091401D01*
X156114035Y-109897830D01*
X156213903Y-109683663D01*
X156275063Y-109455408D01*
X156295659Y-109220000D01*
X156275063Y-108984592D01*
X156213903Y-108756337D01*
X156114035Y-108542171D01*
X155978495Y-108348599D01*
X155978494Y-108348597D01*
X155811402Y-108181506D01*
X155811401Y-108181505D01*
X155625842Y-108051575D01*
X155625841Y-108051574D01*
X155582216Y-107996997D01*
X155575024Y-107927498D01*
X155606546Y-107865144D01*
X155625836Y-107848428D01*
X155811401Y-107718495D01*
X155978495Y-107551401D01*
X156114035Y-107357830D01*
X156213903Y-107143663D01*
X156275063Y-106915408D01*
X156295659Y-106680000D01*
X156275063Y-106444592D01*
X156213903Y-106216337D01*
X156114035Y-106002171D01*
X155978495Y-105808599D01*
X155978494Y-105808597D01*
X155811402Y-105641506D01*
X155811396Y-105641501D01*
X155625842Y-105511575D01*
X155582217Y-105456998D01*
X155575023Y-105387500D01*
X155606546Y-105325145D01*
X155625842Y-105308425D01*
X155648026Y-105292891D01*
X155811401Y-105178495D01*
X155978495Y-105011401D01*
X156114035Y-104817830D01*
X156213903Y-104603663D01*
X156275063Y-104375408D01*
X156295659Y-104140000D01*
X156275063Y-103904592D01*
X156213903Y-103676337D01*
X156114035Y-103462171D01*
X156104253Y-103448200D01*
X155978494Y-103268597D01*
X155811402Y-103101506D01*
X155811401Y-103101505D01*
X155625842Y-102971575D01*
X155625841Y-102971574D01*
X155582216Y-102916997D01*
X155575024Y-102847498D01*
X155606546Y-102785144D01*
X155625836Y-102768428D01*
X155811401Y-102638495D01*
X155978495Y-102471401D01*
X156114035Y-102277830D01*
X156213903Y-102063663D01*
X156275063Y-101835408D01*
X156295659Y-101600000D01*
X156275063Y-101364592D01*
X156213903Y-101136337D01*
X156114035Y-100922171D01*
X156097448Y-100898481D01*
X155978494Y-100728597D01*
X155811402Y-100561506D01*
X155811396Y-100561501D01*
X155625842Y-100431575D01*
X155582217Y-100376998D01*
X155575023Y-100307500D01*
X155606546Y-100245145D01*
X155625842Y-100228425D01*
X155740015Y-100148480D01*
X155811401Y-100098495D01*
X155978495Y-99931401D01*
X156114035Y-99737830D01*
X156213903Y-99523663D01*
X156275063Y-99295408D01*
X156295659Y-99060000D01*
X156275063Y-98824592D01*
X156228626Y-98651285D01*
X156213905Y-98596344D01*
X156213904Y-98596343D01*
X156213903Y-98596337D01*
X156114035Y-98382171D01*
X156053811Y-98296161D01*
X155978494Y-98188597D01*
X155811402Y-98021506D01*
X155811401Y-98021505D01*
X155689746Y-97936321D01*
X155625841Y-97891574D01*
X155582216Y-97836997D01*
X155575024Y-97767498D01*
X155606546Y-97705144D01*
X155625836Y-97688428D01*
X155811401Y-97558495D01*
X155978495Y-97391401D01*
X156114035Y-97197830D01*
X156213903Y-96983663D01*
X156275063Y-96755408D01*
X156295659Y-96520000D01*
X156275063Y-96284592D01*
X156213903Y-96056337D01*
X156114035Y-95842171D01*
X155978495Y-95648599D01*
X155978494Y-95648597D01*
X155811402Y-95481506D01*
X155811396Y-95481501D01*
X155625842Y-95351575D01*
X155582217Y-95296998D01*
X155575023Y-95227500D01*
X155606546Y-95165145D01*
X155625842Y-95148425D01*
X155725732Y-95078481D01*
X155811401Y-95018495D01*
X155978495Y-94851401D01*
X156114035Y-94657830D01*
X156213903Y-94443663D01*
X156275063Y-94215408D01*
X156295659Y-93980000D01*
X156275063Y-93744592D01*
X156213903Y-93516337D01*
X156114035Y-93302171D01*
X156091683Y-93270248D01*
X155978494Y-93108597D01*
X155811402Y-92941506D01*
X155811401Y-92941505D01*
X155760352Y-92905760D01*
X155716729Y-92851184D01*
X155709536Y-92781685D01*
X155741058Y-92719331D01*
X155759590Y-92703790D01*
X155759461Y-92703625D01*
X155811653Y-92663002D01*
X155959744Y-92547738D01*
X156128164Y-92364785D01*
X156264173Y-92156607D01*
X156364063Y-91928881D01*
X156425108Y-91687821D01*
X156440500Y-91502067D01*
X156440500Y-88837933D01*
X156440500Y-88837932D01*
X156440500Y-84432887D01*
X156460185Y-84365849D01*
X156476814Y-84345212D01*
X158005207Y-82816819D01*
X158066531Y-82783334D01*
X158092889Y-82780500D01*
X161252065Y-82780500D01*
X161252067Y-82780500D01*
X161313284Y-82775427D01*
X161437813Y-82765109D01*
X161437816Y-82765108D01*
X161437821Y-82765108D01*
X161678881Y-82704063D01*
X161906607Y-82604173D01*
X162114785Y-82468164D01*
X162297738Y-82299744D01*
X162450474Y-82103509D01*
X162568828Y-81884810D01*
X162649571Y-81649614D01*
X162690500Y-81404335D01*
X162690500Y-81155665D01*
X162649571Y-80910386D01*
X162568828Y-80675190D01*
X162450474Y-80456491D01*
X162297738Y-80260256D01*
X162114785Y-80091836D01*
X162009116Y-80022799D01*
X161963761Y-79969653D01*
X161954337Y-79900422D01*
X161983839Y-79837086D01*
X162005816Y-79817416D01*
X162061401Y-79778495D01*
X162228495Y-79611401D01*
X162364035Y-79417830D01*
X162463903Y-79203663D01*
X162525063Y-78975408D01*
X162545659Y-78740000D01*
X162525063Y-78504592D01*
X162463903Y-78276337D01*
X162364035Y-78062171D01*
X162358425Y-78054158D01*
X162228494Y-77868597D01*
X162061402Y-77701506D01*
X162061396Y-77701501D01*
X161875842Y-77571575D01*
X161832217Y-77516998D01*
X161825023Y-77447500D01*
X161856546Y-77385145D01*
X161875842Y-77368425D01*
X161898026Y-77352891D01*
X162061401Y-77238495D01*
X162228495Y-77071401D01*
X162364035Y-76877830D01*
X162463903Y-76663663D01*
X162525063Y-76435408D01*
X162545659Y-76200000D01*
X162525063Y-75964592D01*
X162478626Y-75791285D01*
X162463905Y-75736344D01*
X162463904Y-75736343D01*
X162463903Y-75736337D01*
X162364035Y-75522171D01*
X162358425Y-75514158D01*
X162228494Y-75328597D01*
X162061402Y-75161506D01*
X162061401Y-75161505D01*
X161875842Y-75031575D01*
X161875841Y-75031574D01*
X161832216Y-74976997D01*
X161825024Y-74907498D01*
X161856546Y-74845144D01*
X161875836Y-74828428D01*
X162061401Y-74698495D01*
X162228495Y-74531401D01*
X162364035Y-74337830D01*
X162463903Y-74123663D01*
X162525063Y-73895408D01*
X162545659Y-73660000D01*
X162525063Y-73424592D01*
X162463903Y-73196337D01*
X162364035Y-72982171D01*
X162358425Y-72974158D01*
X162228494Y-72788597D01*
X162061402Y-72621506D01*
X162061396Y-72621501D01*
X161875842Y-72491575D01*
X161832217Y-72436998D01*
X161825023Y-72367500D01*
X161856546Y-72305145D01*
X161875842Y-72288425D01*
X161898026Y-72272891D01*
X162061401Y-72158495D01*
X162228495Y-71991401D01*
X162364035Y-71797830D01*
X162463903Y-71583663D01*
X162525063Y-71355408D01*
X162545659Y-71120000D01*
X162525063Y-70884592D01*
X162463903Y-70656337D01*
X162364035Y-70442171D01*
X162360510Y-70437136D01*
X162228494Y-70248597D01*
X162061402Y-70081506D01*
X162061401Y-70081505D01*
X161875842Y-69951575D01*
X161875841Y-69951574D01*
X161832216Y-69896997D01*
X161825024Y-69827498D01*
X161856546Y-69765144D01*
X161875836Y-69748428D01*
X162061401Y-69618495D01*
X162228495Y-69451401D01*
X162364035Y-69257830D01*
X162463903Y-69043663D01*
X162525063Y-68815408D01*
X162545659Y-68580000D01*
X162525063Y-68344592D01*
X162463903Y-68116337D01*
X162364035Y-67902171D01*
X162358425Y-67894158D01*
X162228494Y-67708597D01*
X162061402Y-67541506D01*
X162061396Y-67541501D01*
X161875842Y-67411575D01*
X161832217Y-67356998D01*
X161825023Y-67287500D01*
X161856546Y-67225145D01*
X161875842Y-67208425D01*
X162016120Y-67110201D01*
X162061401Y-67078495D01*
X162228495Y-66911401D01*
X162364035Y-66717830D01*
X162463903Y-66503663D01*
X162525063Y-66275408D01*
X162545659Y-66040000D01*
X162525063Y-65804592D01*
X162463903Y-65576337D01*
X162364035Y-65362171D01*
X162315906Y-65293436D01*
X162228496Y-65168600D01*
X162214052Y-65154156D01*
X162106567Y-65046671D01*
X162073084Y-64985351D01*
X162078068Y-64915659D01*
X162119939Y-64859725D01*
X162150915Y-64842810D01*
X162282331Y-64793796D01*
X162397546Y-64707546D01*
X162483796Y-64592331D01*
X162534091Y-64457483D01*
X162540500Y-64397873D01*
X162540499Y-62602128D01*
X162534091Y-62542517D01*
X162532810Y-62539083D01*
X162483797Y-62407671D01*
X162483793Y-62407664D01*
X162397547Y-62292455D01*
X162397544Y-62292452D01*
X162282335Y-62206206D01*
X162282328Y-62206202D01*
X162147482Y-62155908D01*
X162147483Y-62155908D01*
X162087883Y-62149501D01*
X162087881Y-62149500D01*
X162087873Y-62149500D01*
X162087864Y-62149500D01*
X160292129Y-62149500D01*
X160292123Y-62149501D01*
X160232516Y-62155908D01*
X160097671Y-62206202D01*
X160097664Y-62206206D01*
X159982455Y-62292452D01*
X159982452Y-62292455D01*
X159896206Y-62407664D01*
X159896203Y-62407669D01*
X159847189Y-62539083D01*
X159805317Y-62595016D01*
X159739853Y-62619433D01*
X159671580Y-62604581D01*
X159643326Y-62583430D01*
X159521402Y-62461506D01*
X159521395Y-62461501D01*
X159327834Y-62325967D01*
X159327830Y-62325965D01*
X159318589Y-62321656D01*
X159113663Y-62226097D01*
X159113659Y-62226096D01*
X159113655Y-62226094D01*
X158885413Y-62164938D01*
X158885403Y-62164936D01*
X158650001Y-62144341D01*
X158649999Y-62144341D01*
X158414596Y-62164936D01*
X158414586Y-62164938D01*
X158186344Y-62226094D01*
X158186335Y-62226098D01*
X157972171Y-62325964D01*
X157972169Y-62325965D01*
X157778597Y-62461505D01*
X157611505Y-62628597D01*
X157475965Y-62822169D01*
X157475964Y-62822171D01*
X157376098Y-63036335D01*
X157376094Y-63036344D01*
X157314938Y-63264586D01*
X157314936Y-63264596D01*
X157294341Y-63499999D01*
X157294341Y-63500000D01*
X157314936Y-63735403D01*
X157314938Y-63735413D01*
X157376094Y-63963655D01*
X157376096Y-63963659D01*
X157376097Y-63963663D01*
X157434255Y-64088383D01*
X157475964Y-64177828D01*
X157475966Y-64177832D01*
X157480345Y-64184085D01*
X157502673Y-64250291D01*
X157485663Y-64318058D01*
X157466452Y-64342890D01*
X148420966Y-73388375D01*
X148418240Y-73390942D01*
X148371818Y-73432068D01*
X148336586Y-73483109D01*
X148334368Y-73486124D01*
X148296124Y-73534939D01*
X148296119Y-73534948D01*
X148291960Y-73544188D01*
X148280942Y-73563723D01*
X148275187Y-73572061D01*
X148275183Y-73572067D01*
X148275182Y-73572070D01*
X148275180Y-73572074D01*
X148275179Y-73572077D01*
X148253189Y-73630055D01*
X148251757Y-73633513D01*
X148226305Y-73690068D01*
X148224477Y-73700042D01*
X148218454Y-73721650D01*
X148214860Y-73731125D01*
X148214859Y-73731130D01*
X148207387Y-73792671D01*
X148206824Y-73796373D01*
X148195642Y-73857391D01*
X148195642Y-73857395D01*
X148199387Y-73919302D01*
X148199500Y-73923047D01*
X148199500Y-103156951D01*
X148199387Y-103160696D01*
X148195642Y-103222603D01*
X148195642Y-103222605D01*
X141608050Y-103222605D01*
X143829048Y-101001606D01*
X143831740Y-100999072D01*
X143878183Y-100957929D01*
X143913427Y-100906867D01*
X143915634Y-100903869D01*
X143953878Y-100855056D01*
X143958037Y-100845813D01*
X143969061Y-100826268D01*
X143974818Y-100817930D01*
X143996810Y-100759939D01*
X143998232Y-100756503D01*
X144023695Y-100699931D01*
X144025522Y-100689959D01*
X144031546Y-100668347D01*
X144035140Y-100658872D01*
X144042613Y-100597324D01*
X144043177Y-100593619D01*
X144047912Y-100567781D01*
X144054358Y-100532606D01*
X144050613Y-100470696D01*
X144050500Y-100466951D01*
X144050500Y-76141518D01*
X144070185Y-76074479D01*
X144086814Y-76053841D01*
X145279056Y-74861599D01*
X145281748Y-74859065D01*
X145328183Y-74817929D01*
X145363417Y-74766883D01*
X145365620Y-74763887D01*
X145403878Y-74715056D01*
X145408037Y-74705813D01*
X145419061Y-74686268D01*
X145424818Y-74677930D01*
X145446810Y-74619939D01*
X145448232Y-74616503D01*
X145473695Y-74559931D01*
X145475522Y-74549959D01*
X145481546Y-74528347D01*
X145485140Y-74518872D01*
X145492613Y-74457324D01*
X145493177Y-74453619D01*
X145496535Y-74435289D01*
X145504358Y-74392606D01*
X145500613Y-74330696D01*
X145500500Y-74326951D01*
X145500500Y-64623047D01*
X145500613Y-64619302D01*
X145504358Y-64557394D01*
X145493175Y-64496371D01*
X145492613Y-64492674D01*
X145488340Y-64457483D01*
X145485140Y-64431128D01*
X145481548Y-64421656D01*
X145475521Y-64400034D01*
X145473695Y-64390071D01*
X145473695Y-64390069D01*
X145448223Y-64333474D01*
X145446812Y-64330065D01*
X145424818Y-64272070D01*
X145419063Y-64263733D01*
X145408036Y-64244182D01*
X145403879Y-64234946D01*
X145403878Y-64234943D01*
X145376894Y-64200500D01*
X145365630Y-64186122D01*
X145363410Y-64183106D01*
X145328182Y-64132070D01*
X145323148Y-64127610D01*
X145281750Y-64090935D01*
X145279056Y-64088399D01*
X144211598Y-63020941D01*
X144209064Y-63018250D01*
X144167929Y-62971817D01*
X144167928Y-62971816D01*
X144167924Y-62971812D01*
X144116896Y-62936591D01*
X144113887Y-62934377D01*
X144065060Y-62896124D01*
X144065055Y-62896120D01*
X144055813Y-62891961D01*
X144036266Y-62880936D01*
X144027931Y-62875183D01*
X144027932Y-62875183D01*
X144027930Y-62875182D01*
X143969941Y-62853189D01*
X143966490Y-62851759D01*
X143909930Y-62826304D01*
X143899946Y-62824474D01*
X143878343Y-62818451D01*
X143868874Y-62814860D01*
X143868870Y-62814859D01*
X143807313Y-62807384D01*
X143803612Y-62806821D01*
X143742608Y-62795642D01*
X143742603Y-62795642D01*
X143680697Y-62799387D01*
X143676952Y-62799500D01*
X137264499Y-62799500D01*
X137197460Y-62779815D01*
X137151705Y-62727011D01*
X137140499Y-62675500D01*
X137140499Y-62602129D01*
X137140498Y-62602123D01*
X137134091Y-62542516D01*
X137083797Y-62407671D01*
X137083795Y-62407668D01*
X137083792Y-62407664D01*
X137019405Y-62321654D01*
X136994988Y-62256192D01*
X137009839Y-62187918D01*
X137030988Y-62159665D01*
X137659662Y-61530990D01*
X137659670Y-61530984D01*
X137666729Y-61523925D01*
X137666733Y-61523923D01*
X137686187Y-61504467D01*
X137686356Y-61504375D01*
X137722579Y-61468149D01*
X137722580Y-61468150D01*
X137784479Y-61406248D01*
X137812294Y-61366520D01*
X137866866Y-61322893D01*
X137936364Y-61315696D01*
X137966275Y-61325257D01*
X137988120Y-61335444D01*
X138009738Y-61345525D01*
X138009740Y-61345525D01*
X138009745Y-61345528D01*
X138178844Y-61390838D01*
X138318363Y-61403044D01*
X138353242Y-61406096D01*
X138353243Y-61406096D01*
X138353244Y-61406096D01*
X138382309Y-61403553D01*
X138527642Y-61390838D01*
X138696741Y-61345528D01*
X138855404Y-61271542D01*
X138959028Y-61198983D01*
X138965754Y-61194888D01*
X138966227Y-61194641D01*
X138967334Y-61193659D01*
X138972877Y-61189285D01*
X138998808Y-61171130D01*
X139002450Y-61167487D01*
X139002624Y-61167333D01*
X139007458Y-61162497D01*
X139044468Y-61125473D01*
X139047153Y-61122945D01*
X139093558Y-61081836D01*
X139099239Y-61073605D01*
X139113599Y-61056373D01*
X139122688Y-61047282D01*
X139122687Y-61047282D01*
X139122690Y-61047280D01*
X139223075Y-60903873D01*
X139297036Y-60745214D01*
X139342326Y-60576124D01*
X139357570Y-60401738D01*
X139342305Y-60227355D01*
X139296993Y-60058270D01*
X139281339Y-60024702D01*
X139270847Y-59955625D01*
X139299365Y-59891841D01*
X139306027Y-59884628D01*
X141591358Y-57599297D01*
X141652679Y-57565814D01*
X141722371Y-57570798D01*
X141744133Y-57581441D01*
X141830659Y-57634810D01*
X141830660Y-57634810D01*
X141830666Y-57634814D01*
X141997203Y-57689999D01*
X142099991Y-57700500D01*
X143500008Y-57700499D01*
X143602797Y-57689999D01*
X143769334Y-57634814D01*
X143918656Y-57542712D01*
X144042712Y-57418656D01*
X144134814Y-57269334D01*
X144189999Y-57102797D01*
X144200500Y-57000009D01*
X144200499Y-53799992D01*
X144189999Y-53697203D01*
X144134814Y-53530666D01*
X144042712Y-53381344D01*
X143918656Y-53257288D01*
X143769334Y-53165186D01*
X143602797Y-53110001D01*
X143602795Y-53110000D01*
X143500010Y-53099500D01*
X142099998Y-53099500D01*
X142099981Y-53099501D01*
X141997203Y-53110000D01*
X141997200Y-53110001D01*
X141830668Y-53165185D01*
X141830663Y-53165187D01*
X141681342Y-53257289D01*
X141557289Y-53381342D01*
X141465187Y-53530663D01*
X141465185Y-53530666D01*
X141465186Y-53530666D01*
X141410001Y-53697203D01*
X141410001Y-53697204D01*
X141410000Y-53697204D01*
X141399500Y-53799983D01*
X141399500Y-55758480D01*
X141379815Y-55825519D01*
X141363181Y-55846161D01*
X140583612Y-56625729D01*
X140522289Y-56659214D01*
X140452597Y-56654230D01*
X140396664Y-56612358D01*
X140372247Y-56546894D01*
X140373715Y-56517091D01*
X140390499Y-56419207D01*
X140390500Y-56419198D01*
X140390500Y-54440498D01*
X140375347Y-54262463D01*
X140315275Y-54031751D01*
X140217080Y-53814519D01*
X140217075Y-53814511D01*
X140083586Y-53617006D01*
X140083582Y-53617001D01*
X140083579Y-53616997D01*
X139918621Y-53444882D01*
X139726947Y-53303121D01*
X139514074Y-53195793D01*
X139384283Y-53156045D01*
X139286121Y-53125983D01*
X139049647Y-53095701D01*
X138811471Y-53105819D01*
X138811467Y-53105819D01*
X138578419Y-53156045D01*
X138357211Y-53244935D01*
X138154203Y-53369932D01*
X137975245Y-53527435D01*
X137972635Y-53530668D01*
X137825477Y-53712920D01*
X137825475Y-53712922D01*
X137825476Y-53712922D01*
X137709210Y-53921044D01*
X137629788Y-54145829D01*
X137589500Y-54380790D01*
X137589500Y-55758480D01*
X137569815Y-55825519D01*
X137553181Y-55846161D01*
X134060966Y-59338375D01*
X134058240Y-59340942D01*
X134011818Y-59382068D01*
X133976586Y-59433109D01*
X133974368Y-59436124D01*
X133936124Y-59484939D01*
X133936119Y-59484948D01*
X133931960Y-59494188D01*
X133920942Y-59513723D01*
X133915187Y-59522061D01*
X133915183Y-59522067D01*
X133915182Y-59522070D01*
X133915180Y-59522074D01*
X133915179Y-59522077D01*
X133893189Y-59580055D01*
X133891757Y-59583513D01*
X133866305Y-59640068D01*
X133864477Y-59650042D01*
X133858453Y-59671653D01*
X133854860Y-59681127D01*
X133854859Y-59681128D01*
X133847384Y-59742685D01*
X133846821Y-59746386D01*
X133835642Y-59807390D01*
X133835642Y-59807395D01*
X133839387Y-59869302D01*
X133839500Y-59873047D01*
X133839500Y-64638214D01*
X133819815Y-64705253D01*
X133767011Y-64751008D01*
X133697853Y-64760952D01*
X133683407Y-64757989D01*
X133485413Y-64704938D01*
X133485403Y-64704936D01*
X133250001Y-64684341D01*
X133249999Y-64684341D01*
X133014596Y-64704936D01*
X133014586Y-64704938D01*
X132786344Y-64766094D01*
X132786335Y-64766098D01*
X132572171Y-64865964D01*
X132495622Y-64919564D01*
X132429416Y-64941891D01*
X132361649Y-64924879D01*
X132313837Y-64873931D01*
X132300500Y-64817988D01*
X132300500Y-53941519D01*
X132320185Y-53874480D01*
X132336819Y-53853838D01*
X133353838Y-52836819D01*
X133415161Y-52803334D01*
X133441519Y-52800500D01*
X149033967Y-52800500D01*
X149101006Y-52820185D01*
X149146761Y-52872989D01*
X149156705Y-52942147D01*
X149155694Y-52947248D01*
X149154870Y-52952187D01*
X149134337Y-53199994D01*
X149134337Y-53200005D01*
X149154870Y-53447812D01*
X149154872Y-53447824D01*
X149215916Y-53688881D01*
X149315806Y-53916606D01*
X149451813Y-54124782D01*
X149451816Y-54124785D01*
X149620236Y-54307738D01*
X149816471Y-54460474D01*
X150035170Y-54578828D01*
X150270366Y-54659571D01*
X150515645Y-54700500D01*
X150764315Y-54700500D01*
X151009594Y-54659571D01*
X151244790Y-54578828D01*
X151463489Y-54460474D01*
X151659724Y-54307738D01*
X151828144Y-54124785D01*
X151964153Y-53916607D01*
X152064043Y-53688881D01*
X152125088Y-53447821D01*
X152125332Y-53444881D01*
X152145623Y-53200005D01*
X152145623Y-53199994D01*
X152125089Y-52952187D01*
X152125087Y-52952175D01*
X152064043Y-52711118D01*
X151981547Y-52523047D01*
X151964153Y-52483393D01*
X151904652Y-52392320D01*
X151884466Y-52325432D01*
X151903646Y-52258246D01*
X151956104Y-52212096D01*
X152008462Y-52200500D01*
X153678471Y-52200500D01*
X153745510Y-52220185D01*
X153766152Y-52236819D01*
X154234896Y-52705563D01*
X154268381Y-52766886D01*
X154267421Y-52823684D01*
X154234881Y-52952182D01*
X154214347Y-53199994D01*
X154214347Y-53200005D01*
X154234880Y-53447812D01*
X154234882Y-53447824D01*
X154295926Y-53688881D01*
X154395816Y-53916606D01*
X154531823Y-54124782D01*
X154531826Y-54124785D01*
X154700246Y-54307738D01*
X154896481Y-54460474D01*
X155115180Y-54578828D01*
X155350376Y-54659571D01*
X155595655Y-54700500D01*
X155844325Y-54700500D01*
X156089604Y-54659571D01*
X156324800Y-54578828D01*
X156543499Y-54460474D01*
X156739734Y-54307738D01*
X156898764Y-54134984D01*
X156958649Y-54098996D01*
X157028487Y-54101096D01*
X157081221Y-54134985D01*
X157240251Y-54307738D01*
X157436486Y-54460474D01*
X157655185Y-54578828D01*
X157890381Y-54659571D01*
X158135660Y-54700500D01*
X158384330Y-54700500D01*
X158629609Y-54659571D01*
X158864805Y-54578828D01*
X159083504Y-54460474D01*
X159279739Y-54307738D01*
X159438769Y-54134984D01*
X159498654Y-54098996D01*
X159568492Y-54101096D01*
X159621226Y-54134985D01*
X159780256Y-54307738D01*
X159976491Y-54460474D01*
X160195190Y-54578828D01*
X160430386Y-54659571D01*
X160675665Y-54700500D01*
X160924335Y-54700500D01*
X161169614Y-54659571D01*
X161404810Y-54578828D01*
X161623509Y-54460474D01*
X161819744Y-54307738D01*
X161988164Y-54124785D01*
X162124173Y-53916607D01*
X162224063Y-53688881D01*
X162285108Y-53447821D01*
X162285352Y-53444881D01*
X162305643Y-53200005D01*
X162305643Y-53199994D01*
X162285109Y-52952187D01*
X162285107Y-52952175D01*
X162224063Y-52711118D01*
X162124173Y-52483393D01*
X161988166Y-52275217D01*
X161919384Y-52200500D01*
X161819744Y-52092262D01*
X161623509Y-51939526D01*
X161623507Y-51939525D01*
X161623506Y-51939524D01*
X161404811Y-51821172D01*
X161404802Y-51821169D01*
X161169616Y-51740429D01*
X160924335Y-51699500D01*
X160675665Y-51699500D01*
X160430383Y-51740429D01*
X160195197Y-51821169D01*
X160195188Y-51821172D01*
X159976493Y-51939524D01*
X159780255Y-52092262D01*
X159780252Y-52092265D01*
X159621226Y-52265013D01*
X159561339Y-52301004D01*
X159491501Y-52298903D01*
X159438767Y-52265013D01*
X159432538Y-52258246D01*
X159279739Y-52092262D01*
X159083504Y-51939526D01*
X159083502Y-51939525D01*
X159083501Y-51939524D01*
X158864806Y-51821172D01*
X158864797Y-51821169D01*
X158629611Y-51740429D01*
X158384330Y-51699500D01*
X158135660Y-51699500D01*
X157890378Y-51740429D01*
X157655192Y-51821169D01*
X157655183Y-51821172D01*
X157436488Y-51939524D01*
X157240250Y-52092262D01*
X157240247Y-52092265D01*
X157081221Y-52265013D01*
X157021334Y-52301004D01*
X156951496Y-52298903D01*
X156898762Y-52265013D01*
X156892533Y-52258246D01*
X156739734Y-52092262D01*
X156543499Y-51939526D01*
X156543497Y-51939525D01*
X156543496Y-51939524D01*
X156324801Y-51821172D01*
X156324792Y-51821169D01*
X156089606Y-51740429D01*
X155844325Y-51699500D01*
X155595655Y-51699500D01*
X155350374Y-51740429D01*
X155349661Y-51740674D01*
X155349350Y-51740687D01*
X155345406Y-51741687D01*
X155345200Y-51740875D01*
X155279863Y-51743822D01*
X155221720Y-51711073D01*
X155210147Y-51699500D01*
X154531588Y-51020941D01*
X154529053Y-51018248D01*
X154487919Y-50971817D01*
X154487918Y-50971816D01*
X154487914Y-50971812D01*
X154436886Y-50936591D01*
X154433877Y-50934377D01*
X154385050Y-50896124D01*
X154385045Y-50896120D01*
X154375803Y-50891961D01*
X154356256Y-50880936D01*
X154347921Y-50875183D01*
X154347922Y-50875183D01*
X154347920Y-50875182D01*
X154289928Y-50853188D01*
X154286480Y-50851759D01*
X154229920Y-50826304D01*
X154219936Y-50824474D01*
X154198333Y-50818451D01*
X154188864Y-50814860D01*
X154188860Y-50814859D01*
X154127303Y-50807384D01*
X154123602Y-50806821D01*
X154062598Y-50795642D01*
X154062593Y-50795642D01*
X154000687Y-50799387D01*
X153996942Y-50799500D01*
X132023048Y-50799500D01*
X132019303Y-50799387D01*
X131957396Y-50795642D01*
X131957389Y-50795642D01*
X131896386Y-50806821D01*
X131892685Y-50807384D01*
X131831128Y-50814859D01*
X131831121Y-50814861D01*
X131821647Y-50818454D01*
X131800049Y-50824475D01*
X131790069Y-50826304D01*
X131733519Y-50851755D01*
X131730060Y-50853188D01*
X131672071Y-50875181D01*
X131672063Y-50875185D01*
X131663721Y-50880943D01*
X131644189Y-50891960D01*
X131634946Y-50896120D01*
X131586135Y-50934360D01*
X131583120Y-50936579D01*
X131532072Y-50971816D01*
X131532065Y-50971822D01*
X131490935Y-51018248D01*
X131488368Y-51020974D01*
X130520966Y-51988375D01*
X130518240Y-51990942D01*
X130471818Y-52032068D01*
X130436586Y-52083109D01*
X130434368Y-52086124D01*
X130396124Y-52134939D01*
X130396119Y-52134948D01*
X130391960Y-52144188D01*
X130380942Y-52163723D01*
X130375187Y-52172061D01*
X130375183Y-52172067D01*
X130375182Y-52172070D01*
X130375180Y-52172074D01*
X130375179Y-52172077D01*
X130353189Y-52230055D01*
X130351757Y-52233513D01*
X130326305Y-52290068D01*
X130324477Y-52300042D01*
X130318453Y-52321653D01*
X130314860Y-52331127D01*
X130314859Y-52331128D01*
X130307384Y-52392685D01*
X130306821Y-52396386D01*
X130295642Y-52457390D01*
X130295642Y-52457395D01*
X130299387Y-52519302D01*
X130299500Y-52523047D01*
X130299500Y-70049032D01*
X130299387Y-70052777D01*
X130295642Y-70114684D01*
X130295642Y-70114686D01*
X129540499Y-70114686D01*
X129540499Y-50272033D01*
X129540632Y-50267979D01*
X129542106Y-50245478D01*
X129545981Y-50186356D01*
X129558986Y-50004536D01*
X129560014Y-49996903D01*
X129583153Y-49880579D01*
X129585328Y-49870579D01*
X129614533Y-49736323D01*
X129616392Y-49729625D01*
X129656815Y-49610543D01*
X129706159Y-49478251D01*
X129708633Y-49472520D01*
X129765583Y-49357036D01*
X129832179Y-49235076D01*
X129835019Y-49230384D01*
X129906565Y-49123308D01*
X129908430Y-49120673D01*
X129990282Y-49011331D01*
X129993244Y-49007678D01*
X130078510Y-48910451D01*
X130081220Y-48907558D01*
X130177558Y-48811220D01*
X130180451Y-48808510D01*
X130277678Y-48723244D01*
X130281331Y-48720282D01*
X130390673Y-48638430D01*
X130393308Y-48636565D01*
X130500384Y-48565019D01*
X130505076Y-48562179D01*
X130627036Y-48495583D01*
X130742520Y-48438633D01*
X130748251Y-48436159D01*
X130880543Y-48386815D01*
X130999625Y-48346392D01*
X131006323Y-48344533D01*
X131150548Y-48313158D01*
X131266903Y-48290014D01*
X131274536Y-48288986D01*
X131456244Y-48275989D01*
X131509211Y-48272517D01*
X131537981Y-48270633D01*
X131542036Y-48270500D01*
X131591693Y-48270500D01*
X131591833Y-48270482D01*
X163097972Y-48260500D01*
X163102028Y-48260633D01*
G37*
%TD.AperFunction*%
%TD*%
M02*
